<svg xmlns="http://www.w3.org/2000/svg" xmlns:xlink="http://www.w3.org/1999/xlink" viewBox="0 0 1000 600">
  <path fill="#88C0D0" d="M589.55 213.779c.48-2.883 6.388-7.299 8.839-8.299 29.863-12.16 19.397 22.08 2.012 20.724"/>
  <path fill="#4C566A" d="M609.362 199.351l.132.003h.131l.133.004.131.004.132.007.128.003.132.008.128.008.129.01.127.01.129.012.125.011.128.011.124.014.126.016.124.017.125.019.125.018.121.018.123.018.121.021.122.021.122.025.119.024.122.025.116.024.122.024.117.028.116.029.119.031.113.033.117.031.114.032.118.036.113.035.115.036.109.038.113.035.111.044.11.038.11.043.109.043.111.043.106.047.109.046.108.047.106.049.103.05.107.051.103.049.104.055.103.053.104.057.101.053.1.058.099.061.102.058.1.061.096.06.096.063.097.064.096.064.093.064.092.068.092.066.09.068.094.067.088.071.09.071.084.071.086.074.086.07.084.079.082.075.084.074.082.079.08.078.078.077.079.082.079.082.074.082.075.082.074.082.071.086.07.082.072.089.067.085.071.086.064.088.066.086.064.09.064.088.064.094.061.089.059.093.059.089.057.092.057.093.057.096.054.094.055.092.053.096.054.096.049.098.047.092.049.097.048.096.046.1.043.097.041.1.043.096.045.1.037.097.041.1.038.101.035.098.036.101.035.099.033.101.031.1.031.103.033.1.027.101.029.099.029.104.023.1.025.103.025.1.025.104.021.104.02.1.023.104.021.1.017.104.019.104.019.109.031.196.025.206.024.206.022.208.017.205.015.203.011.207.007.206.004.206.003.207-.003.207-.004.206-.01.206-.012.204-.014.206-.014.207-.022.206-.021.206-.025.203-.027.206-.029.207-.032.203-.036.206-.039.203-.039.203-.042.206-.048.203-.049.202-.051.203-.052.203-.055.203-.056.203-.061.203-.065.199-.063.203-.064.199-.07.198-.071.203-.072.2-.077.198-.078.2-.078.195-.082.2-.086.194-.086.197-.089.199-.089.195-.096.193-.094.195-.096.195-.1.193-.104.191-.1.192-.107.191-.105.188-.11.189-.11.192-.113.185-.115.188-.117.189-.117.186-.121.185-.125.182-.125.185-.123.182-.129.183-.133.182-.131.178-.135.178-.136.178-.138.175-.139.178-.145.171-.142.175-.146.171-.15.171-.146.171-.153.167-.152.164-.154.167-.155.164-.161.164-.16.16-.16.159-.164.157-.167.156-.167.157-.167.153-.172.152-.175.149-.174.15-.178.146-.178.146-.178.143-.184.143-.184.139-.186.14-.185.135-.189.135-.191.133-.192.131-.192.129-.196.124-.199.124-.2.122-.198.12-.203.117-.206.114-.203.114-.212.11-.209.107-.209.106-.215.103-.213.101-.217.097-.217.096-.217.093-.218.088-.118.046-.109.044-.111.043-.113.039-.114.043-.109.039-.116.038-.112.04-.114.039-.113.035-.117.039-.115.035-.117.033-.113.035-.117.031-.119.037-.116.031-.117.027-.118.033-.117.029-.118.027-.12.029-.117.023-.121.029-.117.025-.121.025-.122.02-.121.026-.12.021-.121.021-.122.021-.124.019-.121.017-.125.018-.121.02-.125.014-.123.014-.122.015-.124.015-.125.01-.124.012-.125.01-.128.011-.125.008-.125.007-.128.007-.124.004-.129.007-.125.004h-.128l-.128.003h-.252l-.129-.003h-.129l-.128-.004-.128-.007-.129-.004-.127-.007-.133-.007-.127-.008-.113-.011-.197-.018-.195-.032-.192-.042-.188-.054-.189-.061-.183-.075-.178-.086-.175-.092-.167-.104-.159-.11-.157-.121-.149-.131-.14-.14-.131-.143-.125-.152-.118-.16-.106-.168-.096-.17-.088-.175-.076-.183-.066-.185-.058-.188-.046-.192-.036-.195-.021-.196-.014-.195-.005-.196.012-.196.018-.199.032-.191.044-.193.053-.191.06-.186.074-.182.087-.178.093-.175.103-.167.109-.164.121-.152.133-.149.138-.143.147-.132.149-.125.159-.113.168-.107.17-.097.178-.089.178-.078.187-.064.188-.057.191-.046.197-.036.195-.023.195-.012.196-.004.2.008.085.008.075.007.074.003.074.004.071.004.075.003h.075l.071.003h.29l.075-.003h.071l.07-.003.076-.004.07-.004.07-.003.072-.007.071-.004.071-.008.074-.004.071-.006.071-.008.071-.01.067-.008.072-.011.07-.007.071-.012.071-.01.071-.012.071-.014.066-.01.072-.012.07-.014.069-.014.069-.015.072-.015.067-.014.07-.019.067-.015.072-.018.066-.018.073-.019.067-.018.07-.017.068-.021.067-.018.071-.022.066-.021.069-.021.067-.021.07-.021.068-.025.067-.021.067-.025.067-.025.068-.024.068-.025.067-.023.066-.026.063-.024.14-.057.136-.057.132-.059.135-.06.133-.064.135-.063.132-.064.13-.067.129-.071.133-.07.131-.076.129-.074.128-.074.128-.08.128-.082.126-.08.127-.082.125-.086.125-.086.123-.09.126-.088.12-.092.126-.094.12-.096.121-.097.117-.096.119-.1.119-.1.115-.103.117-.104.114-.104.113-.106.114-.106.113-.107.111-.109.109-.111.111-.113.107-.114.105-.114.106-.113.104-.119.103-.116.104-.118.104-.121.101-.117.096-.125.099-.121.096-.121.097-.124.093-.124.094-.125.092-.129.088-.124.09-.128.086-.129.086-.128.085-.128.081-.132.082-.128.078-.132.079-.132.077-.131.076-.132.073-.128.073-.133.07-.136.072-.131.066-.132.064-.131.068-.137.061-.131.063-.132.057-.132.06-.132.059-.136.053-.131.054-.132.05-.128.051-.132.049-.132.047-.131.045-.129.044-.129.038-.131.039-.129.04-.129.035-.124.036-.127.031-.126.033-.124.028-.124.024-.121.029-.121.021-.122.024-.12.019-.117.021-.118.018-.118.014-.113.015-.117.01-.111.012-.11.012-.11.006-.109.004-.107.004-.105.003-.104v-.304l-.003-.097-.008-.096-.006-.093-.009-.093-.007-.089-.011-.089-.011-.086-.014-.093-.008-.035-.007-.039-.007-.039-.007-.039-.009-.043-.008-.039-.01-.035-.01-.039-.007-.04-.011-.036-.011-.035-.007-.038-.011-.037-.011-.031-.012-.036-.01-.035-.011-.032-.011-.034-.011-.033-.014-.031-.012-.033-.015-.031-.01-.029-.01-.031-.015-.028-.011-.033-.014-.028-.015-.028-.011-.028-.014-.028-.016-.028-.014-.025-.015-.028-.015-.024-.013-.029-.015-.024-.014-.024-.015-.025-.019-.025-.015-.021-.014-.025-.017-.023-.016-.025-.018-.021-.014-.025-.019-.021-.017-.021-.016-.021-.018-.024-.018-.022-.018-.018-.018-.021-.02-.021-.017-.022-.021-.021-.019-.021-.018-.018-.022-.021-.018-.021-.02-.018-.023-.021-.021-.018-.02-.021-.022-.018-.021-.018-.021-.021-.025-.018-.021-.02-.026-.017-.023-.022-.026-.018-.024-.018-.024-.018-.024-.018-.028-.021-.028-.019-.026-.018-.027-.017-.028-.02-.033-.017-.031-.019-.029-.018-.031-.018-.032-.015-.032-.017-.036-.018-.034-.019-.037-.018-.035-.019-.035-.014-.04-.019-.036-.014-.039-.018-.043-.018-.039-.015-.041-.019-.044-.014-.042-.015-.043-.018-.047-.014-.046-.015-.046-.015-.05-.014-.047-.014-.053-.015-.05-.014-.049-.011-.055-.016-.053-.014-.054-.011-.058-.014-.027-.01-.057-.012-.058-.01-.061-.012-.06-.01-.064-.011-.061-.011-.064-.007-.063-.011-.068-.007-.063-.008-.068-.007-.07-.008-.068-.006-.071-.008-.073-.004-.072-.007-.075-.003-.073-.004-.076-.004-.078-.004h-.078l-.078-.003h-.164l-.082-.003-.086.003h-.17l-.086.003-.09.004-.088.004-.09.004-.089.006-.093.004-.096.007-.094.009-.096.006-.096.011-.097.008-.099.011-.1.01-.1.011-.104.015-.103.01-.104.016-.105.014-.104.015-.106.018-.111.014-.105.019-.111.018-.113.021-.109.018-.114.021-.114.021-.118.021-.117.024-.118.024-.117.025-.12.025-.122.025-.121.027-.119.029-.127.027-.124.032-.128.029-.124.032-.13.035-.13.031-.128.036-.132.036-.133.035-.135.036-.136.038-.135.04-.135.04-.139.042-.14.042-.138.043-.14.043-.142.045-.144.048-.146.046-.143.047-.146.049-.15.051-.145.049-.149.053-.15.055-.151.053-.15.054-.154.058-.156.057-.153.057-.155.061-.157.061-.16.061-.157.061-.323.129-.325.127-.023.016-.021.007-.068.031-.074.032-.081.039-.093.047-.102.053-.103.058-.113.06-.118.068-.121.071-.127.075-.133.078-.135.085-.14.086-.143.092-.142.097-.148.096-.15.103-.15.104-.152.106-.153.11-.156.113-.157.115-.152.117-.156.117-.158.121-.155.125-.157.119-.153.129-.152.125-.153.128-.149.129-.15.131-.146.129-.146.128-.139.132-.139.132-.135.128-.131.128-.133.133-.061.06-.061.064-.061.063-.061.064-.06.061-.062.064-.059.06-.053.062-.053.061-.054.06-.05.058-.051.061-.049.057-.047.057-.045.057-.043.054-.043.054-.04.053-.038.054-.039.05-.035.051-.037.05-.031.046-.032.047-.028.043-.025.042-.028.043-.021.036-.025.038-.018.036-.019.031-.018.033-.014.025-.015.027-.012.021-.01.021-.007.018-.007.014-.001.004-.035.174-.05.192-.065.185-.07.186-.081.178-.093.176-.104.166-.111.164-.12.156-.128.15-.137.139-.145.135-.15.125-.16.117-.164.107-.17.1-.178.088-.183.079-.182.068-.188.057-.191.05-.193.035-.195.025-.195.014-.199.004-.195-.007-.197-.019-.195-.031-.191-.039-.193-.055-.186-.06-.185-.071-.178-.082-.175-.093-.167-.103-.164-.111-.157-.119-.145-.129-.144-.136-.135-.146-.125-.154-.118-.155-.105-.168-.102-.171-.088-.174-.078-.182-.067-.186-.058-.189-.046-.188-.039-.195-.024-.196-.016-.195-.003-.196.008-.194.021-.197.029-.195.02-.113.033-.157.035-.153.04-.148.042-.146.043-.146.047-.143.049-.139.053-.135.055-.136.053-.128.057-.129.061-.128.061-.124.062-.125.063-.121.064-.117.067-.117.069-.118.066-.114.068-.113.071-.111.069-.109.076-.11.07-.11.074-.107.076-.105.078-.104.078-.107.078-.103.078-.104.082-.104.078-.099.082-.104.082-.101.086-.1.082-.096.085-.1.085-.096.089-.1.087-.096.088-.096.085-.098.089-.092.09-.096.092-.093.09-.093.096-.097.182-.181.186-.182.188-.182.188-.179.193-.175.192-.173.195-.172.191-.17.2-.169.195-.166.199-.164.199-.16.199-.16.2-.157.199-.153.2-.152.198-.15.2-.146.195-.146.199-.139.196-.14.198-.136.197-.135.192-.127.191-.129.192-.121.192-.121.189-.117.188-.114.185-.11.186-.107.185-.107.182-.099.182-.096.182-.097.181-.088.179-.09.182-.082.174-.078.1-.043.089-.035.374-.149.363-.146.186-.071.182-.07.182-.068.182-.067.178-.067.178-.064.178-.068.18-.064.173-.06.175-.064.174-.06.174-.058.176-.061.172-.057.17-.058.171-.057.171-.053.168-.054.17-.054.168-.049.166-.051.164-.05.168-.05.164-.047.163-.049.165-.043.162-.046.16-.044.164-.042.16-.042.16-.04.157-.042.159-.039.158-.037.156-.038.156-.035.156-.036.154-.032.156-.032.152-.035.153-.028.153-.032.15-.029.152-.027.149-.029.149-.024.15-.024.148-.025.146-.025.15-.021.145-.021.146-.022.146-.021.142-.018.146-.018.142-.017.143-.015.143-.019.143-.015.143-.01.139-.014.142-.012.14-.01.139-.012.139-.006.136-.008.14-.008.134-.007.137-.003.134-.004.137-.004h.135l.135-.004.132.003z"/>
  <path fill="none" stroke="#88C0D0" stroke-width="1.48" stroke-linecap="round" stroke-linejoin="round" stroke-miterlimit="1.5" d="M482.455 135.15s12.25-12.759 16.844 18.371m25.514-21.432s-11.738-12.25-15.821 19.901m-16.163-30.228s13.78-8.783 11.239 26.736"/>
  <path fill="#EBCB8B" stroke="#4C566A" stroke-width="5" stroke-linecap="round" stroke-linejoin="round" stroke-miterlimit="1.5" d="M451.532 436.603s1.428-26.116 15.159-33.886c13.731-7.764 23.013 2.247 15.532 11.689-7.476 9.44-13.688 18.963-12.012 28.488 1.678 9.523-19.74 10.178-18.679-6.291h0zm118.145 3.036s-13.823-22.203-7.041-36.444c6.786-14.243 20.132-11.373 19.427.651-.701 12.023-.32 23.388 6.52 30.223 6.838 6.833-10.319 19.664-18.906 5.57h0z"/>
  <path fill="#88C0D0" d="M427.771 191.283c-2.741 1.029-5.696-.697-7.789-2.324-25.462-19.777 9.338-27.701 16.854-11.969"/>
  <path fill="#4C566A" d="M422.061 165.131l.221.003.217.005.221.006.221.008.217.014.221.012.221.014.221.018.221.021.22.022.221.021.221.027.221.025.221.032.221.032.225.036.22.035.221.039.221.039.22.042.221.047.221.047.218.049.22.055.222.053.221.057.217.061.221.061.217.064.217.064.217.067.218.071.217.074.217.074.214.075.217.082.214.082.214.085.213.086.213.089.209.093.211.096.209.096.21.1.21.101.207.106.206.107.207.109.204.111.203.113.203.117.203.121.199.121.199.125.2.129.196.131.192.132.195.139.192.14.189.138.192.146.185.146.182.146.1.078.089.078.092.075.092.078.09.079.092.081.089.079.089.082.089.08.089.082.089.082.086.082.089.086.086.086.085.085.085.085.085.09.086.086.082.089.085.089.082.089.082.093.082.089.083.092.079.093.081.093.079.097.078.092.078.096.078.096.079.098.074.1.075.096.075.1.075.1.075.1.075.104.071.1.071.104.071.103.071.104.071.106.068.103.067.107.067.106.068.106.067.107.064.109.064.111.064.11.064.11.064.111.061.109.06.113.061.113.06.115.057.113.057.115.061.117.05.104.078.174.068.178.057.182.05.182.039.189.029.184.018.193.011.188-.003.189-.01.191-.025.189-.032.186-.043.185-.054.185-.064.178-.07.178-.083.172-.089.167-.1.161-.11.156-.118.148-.125.147-.131.135-.139.128-.146.125-.154.111-.16.105-.164.096-.167.09-.174.074-.178.072-.178.057-.186.049-.185.039-.189.029-.189.018-.192.008h-.188l-.193-.016-.188-.02-.185-.033-.185-.043-.186-.053-.178-.064-.174-.071-.175-.082-.167-.089-.16-.104-.157-.105-.149-.118-.146-.124-.135-.133-.128-.139-.121-.146-.114-.153-.106-.16-.097-.164-.085-.167-.04-.082-.032-.063-.036-.068-.031-.063-.036-.067-.035-.064-.033-.064-.035-.064-.036-.064-.039-.063-.036-.064-.035-.062-.039-.063-.039-.061-.036-.064-.039-.061-.039-.06-.04-.062-.043-.061-.039-.057-.042-.061-.04-.061-.042-.057-.042-.057-.043-.062-.043-.057-.042-.057-.043-.056-.042-.055-.046-.057-.046-.058-.043-.054-.046-.057-.046-.054-.046-.054-.045-.057-.05-.053-.046-.055-.05-.049-.046-.053-.05-.054-.049-.054-.049-.051-.05-.049-.05-.053-.049-.051-.054-.049-.049-.05-.054-.051-.05-.05-.053-.05-.053-.046-.053-.05-.053-.046-.058-.05-.053-.048-.054-.046-.057-.046-.057-.047-.05-.043-.117-.096-.114-.088-.117-.09-.117-.085-.118-.086-.121-.085-.122-.082-.125-.082-.124-.082-.125-.078-.128-.078-.128-.074-.128-.076-.132-.074-.132-.072-.131-.069-.136-.071-.135-.068-.135-.068-.139-.063-.139-.064-.139-.064-.139-.061-.142-.057-.143-.061-.142-.057-.146-.055-.146-.053-.142-.053-.149-.051-.146-.049-.146-.051-.15-.046-.149-.043-.15-.042-.149-.043-.153-.043-.149-.039-.154-.035-.153-.036-.149-.035-.154-.032-.153-.032-.153-.028-.157-.028-.153-.029-.153-.024-.157-.025-.153-.021-.153-.021-.157-.021-.153-.018-.153-.014-.156-.018-.153-.011-.153-.015-.153-.01-.153-.008-.153-.008-.153-.006-.153-.004-.153-.004-.15-.004h-.153l-.149.004h-.15l-.149.004-.15.007-.149.007-.146.008-.146.011-.146.011-.145.014-.143.011-.146.019-.143.014-.139.018-.142.021-.139.021-.135.021-.139.021-.135.024-.132.025-.135.028-.132.028-.128.028-.131.029-.125.031-.128.032-.125.036-.121.035-.121.035-.121.035-.118.039-.114.04-.114.039-.114.039-.111.043-.11.042-.107.043-.103.047-.103.046-.1.042-.1.051-.096.046-.096.046-.093.051-.089.05-.09.049-.085.05-.085.051-.082.05-.078.05-.079.054-.075.05-.071.053-.071.054-.068.05-.071.061-.025.021-.032.024-.033.024-.028.03-.032.024-.029.024-.028.028-.029.025-.028.025-.025.027-.029.025-.024.025-.025.027-.025.025-.025.025-.025.027-.022.025-.025.025-.021.024-.021.028-.021.025-.021.025-.021.023-.018.025-.022.029-.017.024-.018.025-.019.024-.018.025-.018.025-.014.023-.018.025-.018.025-.015.025-.014.024-.014.024-.015.025-.014.025-.014.024-.015.024-.01.025-.015.025-.01.024-.011.024-.01.025-.014.025-.011.025-.007.023-.01.025-.011.025-.01.025-.008.024-.01.028-.007.025-.007.023-.01.025-.008.028-.007.025-.007.028-.008.025-.007.028-.003.028-.007.025-.008.027-.003.029-.006.028-.004.028-.003.029-.004.031-.007.029v.028l-.003.031-.004.032-.003.032-.003.032v.032l-.003.031v.241l.003.04v.035l.003.039.003.04.004.038.003.04.003.042.008.04.003.042.007.043.007.043.008.043.007.047.01.042.008.046.01.047.011.049.01.047.011.049.011.047.014.049.014.055.015.05.015.054.018.049.014.055.018.057.018.053.021.053.018.058.021.058.021.057.022.061.025.057.025.062.025.06.025.061.025.061.028.064.029.061.028.063.032.063.033.068.032.064.032.067.036.067.035.064.036.071.035.067.039.071.04.067.043.072.039.069.042.071.043.076.046.074.046.071.047.074.045.075.05.078.05.075.05.079.053.074.054.078.053.078.057.082.057.078.057.082.06.078.061.082.061.082.064.085.064.081.064.083.068.085.068.086.067.086.071.084.067.086.075.09.071.084.075.09.079.088.078.091.078.089.079.089.082.089.082.093.082.093.085.089.085.093.089.092.089.097.089.093.093.092.092.096.093.098.096.092.096.097.096.099.099.096.104.098.1.096.104.1.103.1.107.1.106.096.111.104.11.1.11.101.114.1.114.103.114.104.117.1.118.104.117.102.121.104.125.103.121.107.128.104.124.106.129.104.128.106.128.104.271.217.271.213.278.218.082.064.085.063.086.064.085.064.085.064.086.064.086.061.089.06.085.064.089.057.089.061.085.058.089.061.089.053.089.057.085.054.089.053.089.055.086.049.089.051.086.045.089.047.085.046.085.043.083.043.085.039.082.039.082.036.082.035.082.036.079.031.078.029.074.027.079.029.071.021.075.025.071.021.068.018.067.018.068.018.071.014.024.008.029.004.032.007.028.003.033.008.028.003.028.004.028.004.029.003.024.004.029.004.025.003h.025l.025.003h.075l.021.004h.071l.021-.004h.039l.021-.003h.042l.018-.003.018-.004h.021l.018-.004.018-.003.018-.004.018-.004.018-.003.018-.004.018-.004.018-.003.018-.005.018-.006.018-.004.018-.007.018-.003.018-.008.014-.008.043-.014.181-.061.182-.05.186-.042.189-.029.188-.021.189-.011h.192l.189.011.188.021.189.031.185.04.186.054.178.061.178.067.171.082.17.089.16.1.16.107.15.113.146.124.139.128.128.141.124.145.114.15.107.16.1.16.089.17.078.172.071.178.061.182.049.182.043.186.028.188.021.189.01.189v.191l-.01.188-.021.188-.032.189-.04.185-.053.186-.061.178-.071.178-.079.171-.089.171-.1.161-.106.16-.114.148-.125.146-.128.139-.138.128-.146.124-.149.115-.16.105-.164.101-.167.089-.171.078-.179.071-.089.032-.111.039-.11.035-.11.036-.114.035-.11.033-.114.028-.11.031-.114.025-.11.025-.114.023-.11.021-.114.022-.111.021-.11.018-.114.016-.11.014-.111.015-.11.011-.11.01-.11.008-.111.01-.11.004-.106.004-.111.003-.106.005h-.217l-.106-.005-.106-.003-.104-.004-.107-.007-.107-.007-.103-.008-.103-.01-.104-.011-.103-.011-.104-.015-.099-.015-.116.015-.1-.015-.099-.019-.1-.018-.1-.017-.1-.019-.103-.021-.185-.044-.192-.045-.189-.051-.188-.049-.185-.058-.182-.057-.178-.062-.178-.06-.175-.068-.174-.063-.171-.072-.171-.07-.164-.071-.167-.075-.16-.074-.164-.078-.157-.079-.157-.077-.157-.082-.149-.082-.153-.082-.146-.086-.149-.086-.146-.084-.143-.086-.139-.09-.143-.084-.135-.09-.134-.09-.136-.089-.132-.089-.132-.089-.128-.089-.125-.089-.125-.089-.125-.089-.121-.089-.118-.089-.117-.089-.117-.09-.114-.089-.313-.245-.31-.246-.303-.242-.149-.121-.149-.125-.149-.121-.146-.121-.142-.121-.146-.12-.143-.121-.138-.121-.139-.121-.139-.122-.139-.116-.135-.121-.135-.121-.131-.122-.135-.117-.128-.12-.132-.118-.128-.121-.128-.117-.125-.121-.125-.117-.125-.121-.121-.117-.121-.118-.121-.118-.118-.12-.121-.117-.114-.118-.117-.117-.115-.118-.109-.116-.114-.118-.111-.118-.11-.116-.107-.118-.107-.117-.107-.117-.103-.114-.104-.118-.104-.116-.103-.118-.1-.113-.1-.119-.096-.117-.096-.113-.096-.117-.097-.114-.092-.117-.091-.121-.089-.113-.092-.117-.085-.114-.089-.118-.089-.113-.085-.118-.082-.113-.086-.114-.081-.117-.079-.113-.082-.118-.079-.114-.078-.113-.075-.117-.079-.115-.075-.113-.071-.117-.072-.114-.07-.114-.072-.118-.067-.113-.068-.113-.068-.118-.067-.113-.064-.115-.064-.116-.06-.114-.061-.113-.061-.119-.061-.113-.056-.113-.058-.118-.053-.113-.057-.118-.054-.113-.05-.113-.053-.119-.05-.113-.049-.117-.046-.113-.046-.118-.047-.113-.042-.118-.042-.114-.043-.118-.043-.113-.039-.117-.04-.113-.035-.117-.036-.118-.036-.114-.036-.117-.032-.113-.032-.119-.029-.113-.028-.117-.028-.117-.029-.114-.025-.118-.025-.117-.021-.113-.021-.117-.021-.119-.017-.113-.018-.117-.019-.117-.014-.114-.014-.118-.014-.117-.011-.113-.011-.117-.011-.114-.008-.117-.007-.118-.003-.113-.004-.115-.003-.116v-.346l.003-.113.004-.113.007-.115.003-.116.011-.114.007-.109.011-.115.014-.113.011-.113.014-.111.018-.113.018-.111.018-.113.021-.11.021-.11.021-.111.025-.109.025-.107.025-.109.028-.111.029-.106.028-.106.032-.107.033-.106.036-.106.032-.104.039-.107.036-.104.039-.103.039-.103.043-.104.039-.1.046-.104.042-.1.046-.1.046-.1.046-.098.05-.099.05-.097.05-.096.053-.096.05-.096.053-.094.057-.092.053-.092.057-.094.061-.09.057-.092.06-.089.061-.089.061-.086.06-.088.064-.086.064-.086.063-.085.064-.082.068-.081.064-.086.067-.082.071-.078.068-.082.071-.078.067-.078.072-.075.074-.079.072-.074.071-.075.075-.073.075-.076.074-.071.075-.07.079-.071.074-.072.079-.066.079-.072.078-.066.079-.068.083-.064.085-.07.157-.125.164-.125.164-.125.167-.121.171-.117.171-.113.171-.111.174-.109.178-.104.179-.107.178-.099.181-.096.181-.097.186-.093.186-.093.185-.085.189-.085.188-.082.189-.082.192-.078.192-.076.192-.074.196-.067.196-.071.195-.064.2-.064.196-.063.203-.058.199-.057.203-.057.203-.049.203-.054.203-.047.207-.046.206-.043.207-.043.207-.039.21-.039.21-.036.207-.031.213-.032.21-.029.21-.023.214-.025.213-.025.213-.018.214-.021.217-.014.213-.016.217-.014.217-.006.218-.012.217-.004.217-.004.217-.003.218-.024z"/>
  <path fill="#88C0D0" d="M429.427 399.4s-13.236-26.021-10.734-48.336c7.829-69.867-12.738-83.573-4.696-126.191 2.792-14.795 8.067-31.648 17.057-43.9 19.751-26.924 57.717-40.908 90.737-34.586 13.222 2.531 25.162 8.256 36.979 14.532 41.107 21.838 49.65 67.931 44.309 106.774-2.367 17.199-17.151 44-14.987 61.244 4.507 35.95 3.247 55.406-7.978 78.596-9.566 19.764-46.795 34.653-87.494 30.418-6.936-.719-48.429-7.992-63.193-38.551z"/>
  <g opacity=".15">
    <defs>
      <path id="a" opacity=".15" d="M429.427 399.4s-13.236-26.021-10.734-48.336c7.829-69.867-12.738-83.573-4.696-126.191 2.792-14.795 8.067-31.648 17.057-43.9 19.751-26.924 57.717-40.908 90.737-34.586 13.222 2.531 25.162 8.256 36.979 14.532 41.107 21.838 49.65 67.931 44.309 106.774-2.367 17.199-17.151 44-14.987 61.244 4.507 35.95 3.247 55.406-7.978 78.596-9.566 19.764-46.795 34.653-87.494 30.418-6.936-.719-48.429-7.992-63.193-38.551z"/>
    </defs>
    <clipPath id="b">
      <use xlink:href="#a" overflow="visible"/>
    </clipPath>
    <g clip-path="url(#b)" fill="#5E81AC">
      <path d="M576.359 177.841s13.65 33.286 5.326 60.247c-8.32 26.965-22.966 64.58-20.638 102.192 2.331 37.616-1.663 61.918-9.985 72.569-16.809 21.51-62.58 24.633-74.233 21.305-11.648-3.328 45.936 11.982 78.893-1.332 32.955-13.315 37.616-69.236 33.286-104.189-4.325-34.953 23.636-44.94 14.315-105.191-14.979-35.285-15.311-33.288-26.964-45.601z"/>
      <path d="M521.385 229.504s4.09 20.449 28.464 19.258c24.372-1.193 26.073-26.074 26.073-26.074l-54.537 6.816zm-104.24-10.399s4.091 20.453 28.463 19.261c24.369-1.194 26.074-26.078 26.074-26.078l-54.537 6.817z"/>
    </g>
  </g>
  <path fill="#4C566A" d="M506.055 141.371h.412l.414.007.416.007.413.008.414.01.413.011.412.014.412.015.414.019.412.021.414.021.412.021.409.025.413.028.414.028.409.029.413.031.409.035.413.036.409.039.409.039.413.042.409.044.409.045.41.047.409.05.406.054.41.05.408.057.406.058.408.061.407.06.405.061.406.065.405.067.405.066.406.071.406.075.4.072.404.078.324.061.323.064.319.066.326.064.32.066.319.068.321.072.319.07.317.071.32.071.316.075.317.074.315.079.317.078.313.078.316.078.313.081.317.083.314.081.313.086.313.081.311.09.313.085.31.089.313.09.311.09.31.088.31.093.307.093.309.097.311.091.307.098.307.096.305.1.307.1.306.1.308.1.305.1.303.104.303.104.307.104.301.104.305.105.303.107.299.107.302.105.302.111.3.109.3.111.303.109.3.114.298.11.296.113.299.115.298.116.297.114.299.118.295.118.297.115.297.122.297.118.291.121.296.121.296.121.297.12.29.124.292.122.296.124.292.125.291.129.293.124.291.128.293.125.292.128.288.128.292.132.58.261.576.26.581.263.576.268.574.267.572.271.573.274.573.273.572.274.57.278.57.277.565.281.566.281.57.285.562.285.566.283.563.289.566.289.562.291.56.289.562.291.561.293.562.295.56.296.559.296.56.295.248.132.25.136.248.135.246.135.25.135.245.136.245.136.244.139.244.139.241.14.247.138.238.14.242.138.242.143.238.144.239.142.238.143.239.143.233.143.235.146.234.143.236.146.234.146.232.146.229.149.232.146.231.149.231.146.229.149.227.15.229.152.229.149.229.153.224.149.224.153.225.152.224.153.222.157.224.152.222.157.221.152.221.157.216.156.219.156.218.16.216.156.218.161.217.16.213.157.215.16.213.164.211.16.212.16.21.162.211.164.211.164.21.164.206.164.206.164.21.167.202.164.206.167.204.167.206.167.203.168.203.171.199.167.203.171.199.167.199.172.199.17.2.172.195.17.196.176.196.17.195.174.194.176.193.174.193.174.191.175.191.175.191.178.189.175.193.179.188.178.189.178.184.178.189.178.187.178.185.182.185.178.187.182.181.183.187.182.18.181.182.182.178.186.183.181.178.187.178.181.178.186.178.185.175.186.18.185.174.188.174.187.174.188.172.185.174.188.172.189.17.188.171.189.167.188.171.192.168.188.167.192.168.192.164.188.167.192.163.192.164.195.163.192.165.192.16.196.162.192.161.195.161.195.16.196.156.196.156.195.16.196.156.195.156.2.154.199.156.195.153.199.152.199.153.199.152.199.15.199.15.2.148.203.15.198.148.203.15.203.146.2.146.202.146.203.146.203.145.206.144.203.146.203.143.206.143.203.139.207.143.205.139.207.143.207.139.207.135.205.14.207.139.21.135.206.137.211.134.207.137.209.131.21.135.211.133.209.131.21.133.211.127.209.131.211.129.214.13.21.128.213.127.214.129.21.123.214.126.214.128.213.121.215.125.217.125.213.119.214.122.218.121.213.122.217.119.215.119.217.119.217.119.217.117.217.117.218.113.218.118.217.114.221.113.218.114.22.112.221.227.435.219.441.222.442.218.441.213.443.214.442.21.448.207.445.206.445.202.447.201.449.199.453.195.451.191.449.193.455.188.453.186.455.186.455.181.457.178.455.179.459.174.459.175.46.171.459.168.46.167.462.164.462.161.463.159.467.157.463.152.467.153.467.149.466.15.467.146.47.142.469.143.468.14.473.138.471.137.47.131.474.131.47.129.474.128.474.125.477.121.475.12.473.118.477.117.478.114.478.11.477.11.477.111.478.106.48.103.478.1.48.1.48.1.48.096.48.094.481.093.48.089.48.089.483.085.48.086.484.08.481.084.483.078.484.074.484.074.484.072.484.071.484.067.483.066.488.064.483.064.484.061.488.061.484.058.487.056.484.054.487.055.484.05.488.046.486.046.488.047.484.042.488.043.488.039.486.036.484.035.487.035.488.032.488.032.487.029.487.024.485.028.486.022.488.024.488.017.486.018.486.019.486.019.488.011.483.014.488.01.487.007.484.009.488.006.484.004.484v.486l.004.485-.004.483-.004.484-.003.487-.003.485-.009.483-.009.483-.012.482-.01.483-.016.483-.014.48-.019.485-.018.479-.021.48-.021.485-.022.48-.025.48-.024.481-.028.477-.029.48-.027.48-.032.477-.032.478-.037.48-.035.478-.038.473-.036.478-.042.478-.04.473-.046.477-.042.475-.047.473-.047.475-.049.473-.051.47-.049.475-.055.469-.053.47-.057.471-.058.471-.058.466-.06.47-.061.467-.061.467-.063.466-.033.218-.031.22-.031.221-.036.221-.032.222-.039.221-.036.224-.038.22-.039.225-.039.225-.043.225-.044.225-.042.224-.047.228-.045.225-.047.229-.047.227-.05.229-.05.229-.05.229-.051.23-.053.228-.054.231-.053.231-.058.231-.052.231-.059.231-.057.235-.061.231-.057.238-.121.467-.125.469-.125.475-.13.473-.133.478-.135.478-.14.48-.139.48-.143.484-.146.484-.146.487-.152.487-.149.487-.153.492-.157.491-.16.494-.156.496-.164.494-.164.498-.163.5-.164.501-.171.499-.168.5-.17.506-.172.504-.17.504-.174.507-.35 1.011-.35 1.018-.355 1.019-.712 2.043-.355 1.024-.356 1.023-.355 1.024-.354 1.026-.35 1.025-.174.508-.174.514-.17.509-.172.513-.172.51-.169.508-.169.51-.162.51-.168.504-.164.506-.16.51-.16.502-.156.506-.158.501-.155.503-.152.502-.149.498-.147.498-.146.494-.146.496-.14.494-.139.492-.137.491-.133.487-.129.488-.128.487-.124.481-.125.482-.059.238-.059.238-.058.239-.058.238-.057.239-.058.238-.054.234-.053.239-.053.235-.053.234-.054.236-.05.23-.051.234-.05.232-.046.23-.047.232-.045.23-.047.232-.043.227-.043.229-.042.229-.043.228-.039.228-.04.225-.038.225-.04.223-.035.225-.035.225-.032.221-.035.221-.032.222-.033.22-.027.217-.029.221-.028.218-.028.214-.025.217-.025.215-.023.213-.022.213-.021.211-.021.214-.019.21-.019.209-.018.207-.014.207-.014.206-.015.206-.014.207-.011.201-.008.201-.01.202-.009.2-.006.199-.005.199-.002.199-.004.197v.579l.004.191.002.191.005.189.006.188.009.191.006.184.012.186.011.185.011.182.014.181.015.183.017.178.018.178.019.178.021.175.021.186.104.836.102.842.1.833.1.825.098.822.096.818.091.809.09.809.089.8.086.794.085.791.082.783.079.779.074.772.076.771.072.764.069.76.067.754.067.752.061.743.062.741.061.736.053.729.053.729.054.721.046.721.047.712.045.708.04.705.04.701.034.697.036.69.028.692.029.684.028.678.021.681.021.673.019.67.018.666.014.662.011.658.005.332.003.326.003.328v.325l.004.323v.972l-.004.32v.32l-.003.319-.003.321-.005.316-.003.32-.004.316-.006.313-.009.316-.006.317-.008.314-.011.313-.007.313-.011.311-.011.313-.015.31-.012.311-.014.31-.01.305-.018.313-.015.305-.014.307-.019.305-.017.308-.02.303-.017.306-.018.303-.021.303-.021.303-.021.298-.021.303-.024.3-.025.303-.022.296-.027.298-.025.301-.025.298-.027.296-.029.295-.028.295-.032.297-.028.294-.032.296-.032.292-.031.296-.036.292-.028.302-.036.291-.034.292-.04.288-.036.292-.04.29-.038.291-.039.289-.039.287-.043.289-.043.289-.043.285-.043.287-.046.285-.042.289-.047.285-.046.283-.05.285-.047.285-.05.283-.05.281-.053.286-.051.28-.053.285-.054.281-.054.281-.053.283-.058.279-.056.281-.059.282-.056.28-.062.282-.057.277-.061.281-.064.277-.059.282-.065.277-.063.277-.064.278-.063.278-.068.276-.064.278-.071.277-.066.277-.068.277-.071.275-.071.277-.072.277-.074.275-.07.273-.074.277-.078.273-.075.278-.079.273-.074.274-.082.275-.078.273-.078.277-.082.273-.082.275-.086.273-.082.275-.085.273-.085.27-.086.275-.089.273-.086.275-.089.274-.092.273-.09.271-.092.274-.094.274-.092.273-.093.27-.096.275-.097.273-.096.275-.096.27-.1.273-.1.275-.101.27-.1.275-.104.273-.101.27-.105.275-.104.275-.103.273-.107.27-.106.275-.111.273-.105.273-.111.273-.109.271-.111.275-.113.273-.113.273-.115.273-.113.275-.115.273-.117.275-.117.277-.117.273-.121.273-.121.273-.121.278-.121.274-.121.275-.123.278-.126.273-.124.277-.128.278-.128.273-.129.277-.128.278-.129.278-.131.276-.132.278-.133.277-.135.278-.139.286-.125.256-.131.26-.133.258-.135.261-.139.256-.143.261-.143.256-.15.256-.148.254-.149.256-.157.253-.156.249-.156.253-.164.249-.164.254-.166.244-.172.25-.172.245-.174.249-.174.246-.182.242-.182.242-.183.244-.188.243-.185.239-.191.241-.192.239-.195.238-.2.234-.198.239-.205.234-.202.234-.206.231-.211.236-.209.23-.214.231-.218.228-.217.229-.221.232-.221.223-.229.229-.224.225-.228.225-.23.224-.236.225-.235.222-.235.219-.242.221-.238.219-.245.219-.245.217-.246.215-.248.217-.254.215-.252.213-.257.213-.257.212-.26.208-.264.211-.264.21-.262.206-.268.207-.271.207-.271.206-.274.204-.273.201-.277.203-.279.2-.279.198-.285.199-.285.199-.285.231-.289.197-.29.195-.293.192-.292.192-.296.195-.299.189-.298.191-.3.189-.306.188-.303.188-.307.185-.311.187-.309.185-.31.181-.314.187-.317.181-.316.178-.316.182-.32.18-.324.178-.323.174-.323.174-.328.175-.328.173-.331.172-.331.17-.334.173-.335.169-.339.169-.338.167-.339.164-.341.167-.346.163-.346.16-.346.165-.35.161-.348.155-.348.16-.357.156-.352.157-.357.156-.355.152-.359.154-.358.148-.364.153-.363.15-.363.146-.365.149-.367.146-.371.143-.369.146-.375.143-.37.14-.376.142-.375.139-.377.139-.38.136-.382.135-.381.136-.385.135-.385.133-.385.127-.388.134-.388.127-.389.128-.391.125-.396.123-.392.126-.396.122-.396.123-.398.117-.399.121-.401.118-.398.114-.402.117-.406.113-.405.11-.406.114-.407.107-.408.109-.41.107-.413.106-.413.107-.412.103-.412.1-.418.103-.416.101-.42.1-.42.096-.42.098-.42.092-.424.096-.424.089-.424.093-.428.089-.426.09-.429.085-.431.085-.43.082-.432.082-.431.082-.435.082-.434.078-.435.075-.438.074-.438.074-.438.076-.438.07-.442.068-.441.07-.44.068-.443.063-.443.063-.446.065-.448.06-.445.061-.448.058-.448.056-.449.059-.451.053-.449.055-.451.049-.456.051-.453.048-.455.048-.456.047-.455.041-.456.042-.46.039-.459.04-.458.039-.46.037-.463.035-.463.031-.459.032-.467.032-.463.028-.466.024-.463.025-.467.025-.466.021-.47.021-.466.018-.471.018-.47.018-.47.014-.471.015-.475.011-.473.007-.469.011-.475.004-.477.008-.473.002h-.952l-.477-.002-.478-.004-.477-.004-.478-.007-.481-.008-.481-.011-.477-.01-.479-.014-.48-.016-.481-.018-.484-.018-.479-.021-.485-.021-.484-.025-.483-.024-.485-.028-.484-.028-.484-.028-.484-.031-.488-.037-.484-.036-.488-.038-.487-.039-.488-.039-.488-.043-.487-.047-.488-.046-.487-.046-.496-.05-.185-.021-.203-.024-.214-.025-.224-.025-.231-.033-.246-.031-.26-.035-.267-.039-.278-.043-.289-.043-.302-.047-.311-.049-.32-.055-.331-.057-.342-.057-.353-.064-.36-.063-.37-.072-.381-.07-.392-.075-.399-.079-.406-.082-.417-.084-.428-.094-.434-.093-.441-.096-.449-.1-.459-.104-.467-.107-.473-.111-.484-.117-.488-.119-.495-.124-.502-.128-.512-.131-.517-.137-.523-.141-.526-.147-.535-.146-.274-.08-.27-.077-.274-.079-.273-.078-.274-.082-.278-.08-.277-.082-.281-.082-.282-.086-.281-.089-.284-.085-.285-.09-.285-.088-.288-.093-.289-.093-.292-.093-.289-.097-.296-.096-.292-.097-.296-.099-.295-.1-.295-.101-.295-.103-.299-.104-.299-.104-.302-.106-.302-.106-.3-.107-.306-.109-.303-.111-.306-.113-.307-.114-.306-.114-.307-.115-.31-.116-.306-.122-.31-.119-.313-.121-.31-.121-.313-.125-.31-.125-.313-.127-.313-.129-.314-.131-.316-.129-.313-.136-.316-.132-.317-.135-.317-.139-.316-.137-.317-.142-.317-.138-.32-.143-.317-.146-.321-.146-.32-.146-.317-.15-.32-.148-.32-.15-.32-.153-.321-.156-.32-.152-.324-.16-.32-.157-.32-.161-.321-.164-.323-.162-.321-.164-.32-.168-.324-.166-.32-.172-.32-.17-.321-.176-.323-.174-.321-.175-.32-.178-.321-.183-.32-.18-.32-.183-.321-.185-.32-.186-.32-.188-.321-.189-.32-.192-.316-.191-.32-.195-.317-.195-.32-.197-.317-.199-.317-.203-.317-.201-.316-.207-.313-.206-.316-.207-.313-.21-.317-.214-.313-.214-.309-.215-.314-.215-.313-.223-.31-.221-.309-.221-.31-.223-.31-.229-.306-.227-.31-.234-.306-.23-.306-.234-.303-.234-.306-.238-.303-.239-.303-.243-.299-.241-.299-.245-.298-.246-.299-.249-.299-.253-.295-.252-.295-.254-.292-.256-.292-.26-.292-.26-.292-.264-.288-.267-.289-.263-.285-.271-.285-.271-.284-.273-.281-.274-.282-.278-.281-.276-.278-.282-.278-.281-.274-.284-.273-.289-.275-.288-.27-.291-.271-.297-.267-.296-.267-.294-.264-.3-.264-.302-.26-.307-.26-.308-.256-.302-.132-.159-.127-.153-.128-.158-.125-.156-.128-.156-.125-.16-.125-.156-.128-.16-.125-.156-.125-.16-.121-.16-.124-.161-.122-.164-.124-.159-.121-.164-.121-.164-.121-.162-.122-.164-.117-.164-.122-.164-.117-.168-.122-.167-.117-.168-.118-.167-.114-.168-.118-.166-.117-.172-.114-.171-.114-.166-.114-.173-.114-.169-.114-.175-.113-.172-.111-.174-.11-.174-.114-.172-.11-.178-.107-.175-.11-.175-.111-.178-.107-.178-.106-.174-.107-.178-.107-.182-.106-.179-.103-.181-.107-.18-.103-.182-.104-.182-.103-.18-.104-.182-.1-.186-.104-.187-.099-.181-.1-.186-.1-.185-.096-.188-.1-.186-.096-.188-.096-.185-.096-.189-.096-.188-.097-.192-.092-.189-.093-.191-.082-.16-.032-.064-.118-.238-.085-.178-.103-.213-.118-.247-.131-.277-.15-.313-.16-.342-.17-.377-.186-.405-.199-.438-.207-.466-.217-.495-.114-.26-.114-.268-.118-.271-.118-.28-.121-.285-.125-.293-.125-.299-.128-.307-.128-.313-.132-.32-.132-.324-.132-.33-.135-.336-.135-.345-.139-.351-.136-.352-.143-.363-.139-.365-.143-.371-.143-.378-.142-.384-.142-.389-.146-.393-.142-.396-.146-.402-.146-.41-.143-.413-.146-.42-.146-.423-.146-.429-.146-.431-.146-.438-.143-.441-.146-.445-.146-.451-.143-.451-.142-.461-.143-.462-.142-.466-.139-.471-.143-.479-.139-.477-.135-.48-.139-.483-.132-.489-.135-.494-.131-.494-.132-.498-.128-.502-.128-.506-.125-.506-.125-.512-.121-.51-.061-.26-.06-.26-.057-.26-.061-.26-.057-.26-.057-.262-.057-.262-.057-.26-.057-.264-.054-.264-.053-.268-.057-.264-.05-.264-.053-.267-.053-.268-.05-.266-.05-.268-.05-.271-.05-.268-.05-.27-.046-.268-.046-.27-.047-.271-.045-.271-.043-.274-.046-.27-.043-.275-.042-.27-.039-.275-.043-.273-.039-.274-.039-.273-.036-.274-.039-.275-.035-.276-.036-.274-.032-.277-.036-.277-.032-.277-.032-.275-.032-.277-.029-.277-.028-.281-.029-.277-.025-.278-.025-.277-.024-.282-.025-.277-.021-.282-.021-.279-.021-.278-.022-.281-.018-.281-.018-.281-.014-.281-.015-.281-.014-.281-.015-.281-.01-.281-.011-.281-.011-.281-.007-.281-.008-.281-.003-.285-.003-.281-.004-.281-.003-.284v-.563l.003-.284.004-.282.003-.281.007-.284.007-.282.007-.281.01-.284.011-.281.014-.282.015-.284.015-.28.018-.281.021-.282.018-.284.022-.28.024-.282.025-.281.025-.281.028-.281.029-.281.028-.273.092-.816.086-.801.085-.798.082-.794.079-.787.078-.783.075-.775.072-.772.067-.766.067-.765.065-.755.064-.755.06-.748.057-.744.057-.736.053-.734.05-.73.05-.721.046-.72.043-.716.042-.711.039-.707.039-.699.036-.698.032-.69.031-.688.033-.687.025-.677.028-.676.022-.669.021-.669.021-.663.018-.656.014-.654.015-.651.014-.644.007-.641.011-.639.007-.633.004-.63.003-.628v-1.853l-.003-.609-.008-.609-.007-.6-.007-.599-.011-.599-.01-.591-.015-.588-.014-.583-.018-.582-.018-.579-.018-.574-.022-.569-.021-.568-.025-.563-.025-.56-.028-.559-.024-.554-.029-.551-.032-.548-.032-.546-.032-.54-.036-.536-.036-.535-.036-.529-.039-.532-.04-.522-.039-.523-.042-.521-.04-.517-.046-.516-.042-.508-.046-.51-.046-.506-.046-.506-.05-.498-.05-.498-.05-.495-.053-.491-.054-.492-.053-.486-.053-.485-.054-.48-.056-.48-.058-.478-.056-.477-.058-.469-.06-.475-.051-.475-.06-.466-.061-.463-.061-.464-.065-.459-.063-.455-.064-.455-.064-.457-.064-.447-.067-.448-.064-.45-.068-.443-.067-.446-.068-.44-.068-.441-.067-.438-.072-.435-.067-.435-.071-.436-.139-.861-.143-.854-.146-.848-.142-.844-.146-.84-.146-.83-.146-.829-.146-.822-.15-.819-.146-.812-.149-.813-.292-1.608-.292-1.599-.146-.794-.142-.79-.143-.791-.143-.79-.139-.787-.139-.783-.136-.783-.135-.783-.132-.783-.128-.779-.064-.391-.064-.393-.06-.391-.064-.393-.061-.392-.06-.388-.061-.392-.057-.392-.057-.392-.057-.392-.057-.396-.057-.391-.053-.392-.054-.396-.053-.391-.05-.396-.054-.392-.05-.396-.046-.395-.05-.396-.046-.397-.046-.396-.043-.399-.042-.398-.043-.398-.042-.398-.04-.398-.035-.403-.04-.401-.036-.402-.036-.403-.032-.401-.032-.406-.032-.406-.029-.406-.028-.409-.025-.409-.025-.41-.025-.408-.021-.413-.019-.413-.021-.412-.019-.418-.014-.416-.014-.416-.015-.417-.011-.421-.007-.423-.007-.421-.007-.424-.003-.427-.003-.423v-.431l.003-.427.003-.432.003-.435.007-.431.007-.438.01-.435.015-.438.014-.441.018-.442.019-.441.021-.443.022-.449.025-.449.028-.449.028-.452.029-.451.035-.456.036-.459.036-.459.039-.46.043-.463.042-.466.046-.467.05-.466.049-.475.054-.474.057-.473.057-.477.061-.48.064-.48.064-.484.067-.484.071-.491.071-.488.075-.495.079-.494.079-.499.082-.499.086-.5.089-.506.089-.506.092-.513.096-.509.067-.357.068-.355.071-.356.067-.355.071-.359.075-.356.071-.358.075-.36.074-.359.075-.36.079-.362.078-.363.079-.36.078-.362.082-.367.082-.363.083-.363.085-.366.082-.364.089-.365.086-.367.089-.366.085-.366.093-.371.089-.367.093-.367.092-.369.093-.367.096-.371.096-.369.097-.367.1-.369.1-.371.099-.37.1-.37.104-.371.104-.369.106-.37.104-.37.107-.375.11-.369.107-.371.11-.37.11-.37.114-.369.114-.371.114-.373.114-.371.117-.369.118-.371.122-.371.117-.37.121-.37.125-.37.121-.367.125-.369.128-.37.128-.367.128-.37.128-.366.132-.371.131-.365.132-.367.135-.367.136-.367.135-.366.139-.363.139-.366.138-.367.143-.363.142-.363.143-.363.146-.363.146-.363.149-.358.149-.364.15-.359.149-.359.153-.359.153-.355.157-.36.156-.356.157-.355.16-.355.16-.356.164-.353.16-.352.168-.354.164-.352.167-.354.167-.348.171-.35.171-.35.171-.345.174-.345.174-.346.178-.346.178-.345.178-.342.182-.343.181-.338.186-.338.186-.338.185-.339.189-.335.188-.335.189-.333.192-.331.196-.331.192-.332.195-.327.2-.328.199-.327.2-.324.203-.323.203-.321.206-.32.207-.32.21-.32.207-.313.213-.316.213-.313.214-.313.213-.309.217-.311.221-.306.22-.307.221-.307.246-.326.242-.332.25-.328.246-.323.253-.324.249-.323.253-.321.257-.323.256-.317.26-.32.26-.316.26-.313.263-.313.264-.314.267-.313.267-.31.271-.31.271-.307.274-.306.274-.307.274-.303.278-.303.277-.299.282-.299.281-.299.281-.299.285-.295.289-.293.285-.291.292-.293.289-.291.292-.289.296-.289.292-.284.299-.284.295-.285.299-.281.298-.281.303-.277.302-.278.306-.277.307-.274.306-.273.31-.271.31-.271.309-.271.313-.267.313-.267.313-.268.317-.264.317-.264.32-.26.321-.26.32-.261.32-.255.325-.256.327-.254.324-.252.328-.254.331-.248.327-.249.332-.246.331-.246.335-.246.334-.241.334-.242.338-.238.338-.238.338-.236.338-.238.342-.231.342-.234.345-.231.342-.229.345-.228.349-.228.345-.229.349-.22.349-.225.352-.221.352-.22.353-.218.353-.218.355-.213.356-.213.356-.215.356-.209.359-.211.36-.207.359-.206.363-.206.359-.203.363-.203.367-.199.363-.199.367-.196.367-.196.367-.195.37-.192.37-.192.371-.189.37-.188.371-.185.374-.187.374-.185.374-.181.374-.182.377-.179.378-.179.377-.178.377-.174.381-.171.377-.171.381-.17.381-.173.384-.163.38-.167.385-.164.384-.161.384-.162.385-.157.389-.157.384-.156.389-.156.388-.152.388-.15.391-.15.388-.148.392-.146.392-.146.391-.143.392-.142.396-.14.392-.139.396-.139.395-.136.395-.131.396-.133.399-.131.395-.129.399-.129.398-.124.399-.124.398-.125.399-.121.399-.117.402-.117.402-.119.399-.113.402-.113.402-.11.402-.11.406-.106.402-.107.406-.103.403-.104.406-.104.405-.1.406-.096.407-.097.406-.096.406-.093.406-.092.409-.09.406-.09.409-.084.41-.086.405-.082.41-.081.409-.079.409-.078.41-.075.413-.075.409-.074.409-.07.413-.068.409-.067.414-.068.409-.063.413-.064.413-.061.409-.057.414-.057.412-.058.414-.053.413-.054.413-.05.413-.05.413-.047.413-.045.413-.044.417-.042.414-.039.412-.039.413-.036.417-.036.413-.032.413-.031.417-.028.414-.029.413-.024.416-.024.413-.021.417-.021.412-.018.414-.02.416-.017.413-.011.417-.015.413-.007.412-.01.417-.004.412-.008h.413l.416-.003.413.003h-.001zm-.799 7.024h-.383l-.385.006-.385.005-.38.007-.386.011-.384.011-.384.012-.385.014-.385.018-.385.018-.381.018-.384.021-.384.021-.384.025-.386.024-.385.028-.385.029-.384.031-.385.032-.384.032-.385.035-.384.039-.384.039-.385.04-.384.042-.385.043-.381.047-.384.046-.385.05-.384.05-.382.05-.384.055-.385.056-.38.058-.385.056-.384.062-.381.061-.381.064-.384.063-.381.067-.381.068-.384.066-.381.072-.381.07-.381.075-.381.078-.381.075-.381.078-.377.082-.38.082-.378.082-.381.086-.377.089-.38.085-.378.093-.377.089-.377.092-.378.097-.377.097-.377.096-.374.1-.377.1-.374.104-.374.103-.377.106-.375.107-.374.107-.371.109-.374.11-.374.114-.371.114-.374.113-.37.118-.371.117-.371.121-.367.121-.37.124-.37.126-.367.123-.367.129-.367.133-.367.127-.367.133-.364.135-.367.135-.363.135-.363.139-.363.141-.363.142-.359.142-.363.143-.359.146-.36.146-.359.149-.356.15-.36.148-.355.153-.356.153-.356.156-.356.157-.352.157-.356.16-.352.16-.353.163-.349.164-.353.167-.348.164-.35.172-.349.166-.345.172-.35.174-.345.171-.345.179-.346.174-.342.178-.342.182-.342.178-.342.182-.338.186-.342.185-.338.185-.335.189-.338.189-.334.188-.335.192-.334.192-.331.196-.334.195-.331.195-.328.2-.331.199-.328.199-.327.203-.325.203-.327.207-.324.206-.321.206-.323.211-.32.209-.321.21-.32.214-.316.213-.317.218-.317.217-.313.218-.313.217-.314.221-.31.225-.31.221-.31.228-.31.225-.306.228-.306.229-.303.229-.306.23-.303.232-.298.234-.297.231-.295.234-.299.24-.295.237-.295.239-.296.242-.292.242-.292.242-.289.244-.292.246-.284.246-.289.249-.285.249-.285.25-.281.252-.282.253-.281.257-.278.252-.278.256-.277.26-.274.26-.27.262-.275.26-.271.262-.271.265-.267.267-.267.264-.264.267-.264.271-.263.271-.26.27-.26.271-.26.273-.256.273-.253.275-.257.278-.249.276-.253.278-.249.28-.246.281-.249.282-.242.284-.245.285-.243.285-.239.287-.239.289-.238.289-.234.289-.235.291-.231.293-.232.295-.228.295-.228.295-.228.296-.224.3-.225.299-.221.299-.196.27-.199.275-.196.273-.193.277-.196.278-.192.281-.188.281-.192.284-.189.285-.185.285-.189.288-.186.288-.181.292-.186.296-.182.292-.181.296-.178.299-.178.299-.178.299-.178.303-.175.303-.174.303-.171.306-.17.311-.171.306-.17.31-.167.313-.167.313-.167.313-.164.313-.164.316-.164.317-.161.316-.16.32-.16.32-.156.324-.161.32-.153.324-.157.327-.153.325-.153.326-.149.328-.153.331-.149.327-.146.331-.146.334-.145.331-.146.335-.146.335-.143.335-.139.339-.143.334-.139.338-.139.339-.135.342-.139.337-.132.342-.135.342-.131.342-.132.342-.131.342-.132.346-.128.346-.124.345-.128.345-.124.347-.125.345-.125.35-.121.349-.121.345-.121.35-.117.349-.118.349-.118.349-.118.353-.114.35-.114.352-.114.35-.11.353-.111.349-.11.353-.107.353-.111.352-.103.353-.106.353-.107.354-.104.353-.1.353-.103.352-.1.353-.1.353-.1.354-.096.352-.096.352-.096.354-.096.353-.092.353-.093.353-.093.353-.089.352-.089.352-.089.354-.089.352-.085.35-.085.352-.085.35-.086.353-.082.349-.082.35-.082.352-.078.35-.079.348-.078.348-.079.348-.079.35-.074.344-.075.346-.071.35-.075.346-.071.346-.071.342-.068.345-.07.342-.068.342-.067.341-.064.343-.068.342-.064.337-.089.484-.089.481-.085.48-.082.477-.079.475-.078.47-.075.466-.075.467-.071.463-.068.463-.064.455-.064.456-.061.455-.061.452-.057.449-.054.444-.05.445-.05.445-.05.438-.046.438-.042.439-.04.434-.04.431-.039.431-.035.428-.032.427-.028.423-.032.424-.025.42-.025.421-.025.417-.018.416-.021.417-.018.409-.014.412-.015.41-.01.406-.011.408-.008.402-.007.406-.004.402-.003.398-.003.402.003.395v.4l.003.395.007.395.007.396.008.392.01.393.011.391.014.389.014.388.015.388.018.389.021.385.018.384.025.384.021.386.025.38.025.385.029.381.029.382.031.382.029.38.036.377.032.381.036.378.035.377.04.377.035.379.043.377.039.377.042.377.043.378.042.373.047.378.046.377.05.375.047.377.049.377.05.373.053.378.05.374.053.377.054.377.057.378.052.378.058.377.061.378.056.378.057.377.061.377.061.381.063.377.061.381.125.763.131.761.128.766.135.77.136.772.139.776.139.779.139.779.142.787.146.791.292 1.594.292 1.613.15.816.148.822.15.825.146.829.149.84.15.845.146.854.15.857.146.865.143.873.146.879.071.443.071.447.071.447.071.449.067.448.072.456.067.456.068.455.071.464.068.459.064.466.067.466.064.467.068.473.064.474.064.474.064.481.06.48.061.481.064.486.057.488.061.492.06.491.057.498.057.497.057.499.053.506.054.506.053.509.054.514.05.512.053.52.047.521.05.522.046.527.046.527.047.533.042.534.043.537.043.542.039.545.039.549.039.547.036.555.036.557.035.559.032.563.032.565.029.569.028.573.029.577.025.582.025.582.022.584.025.591.017.595.018.594.018.603.014.606.014.604.015.612.01.615.007.615.007.623.007.628.003.63v1.913l-.003.644-.003.651-.007.652-.011.658-.01.659-.01.665-.015.67-.018.672-.018.677-.021.684-.021.685-.025.689-.025.694-.028.698-.032.705-.032.705-.028.687-.039.717-.04.719-.039.725-.042.729-.046.736-.05.736-.05.741-.05.747-.056.751-.058.759-.056.762-.064.766-.064.77-.064.775-.067.779-.071.787-.075.791-.078.793-.079.798-.078.808-.086.809-.085.815-.089.819-.089.818-.029.248-.025.242-.025.242-.021.246-.021.242-.022.246-.018.246-.018.246-.018.244-.014.245-.015.246-.011.25-.011.245-.011.25-.01.248-.007.246-.008.249-.003.249-.003.249-.004.253-.003.25v.498l.003.254v.247l.004.254.007.253.008.248.007.254.007.252.007.254.011.248.014.254.011.252.015.252.014.253.014.253.018.254.019.252.018.256.021.254.018.252.021.254.025.252.021.254.025.252.025.254.025.251.029.253.028.256.028.254.028.252.032.25.032.252.033.254.032.252.035.254.032.252.036.254.039.247.036.253.039.25.039.252.039.25.04.253.042.249.039.249.043.253.046.25.042.248.047.246.042.248.047.25.045.25.05.245.046.25.05.245.05.245.05.247.05.244.05.246.053.246.05.24.053.246.053.244.057.241.054.241.053.242.057.242.057.238.114.482.114.479.118.473.121.476.121.469.121.467.125.467.125.463.128.459.128.455.128.451.132.453.131.444.132.446.135.438.135.438.135.43.135.432.136.424.135.424.139.416.136.413.138.409.139.406.135.398.139.396.139.393.135.387.139.385.135.378.139.369.135.371.135.359.135.359.131.353.136.345.132.342.132.34.128.33.128.324.128.32.128.313.125.307.121.303.121.296.122.288.117.281.118.278.114.271.115.264.109.256.107.254.106.238.207.469.192.438.185.409.175.382.16.349.146.317.135.289.121.251.106.221.093.188.071.15.103.206.043.089.096.193.082.167.082.164.082.166.082.165.085.164.082.163.085.159.085.164.085.164.085.161.089.16.085.159.089.16.089.16.089.16.089.157.089.16.093.157.093.155.089.157.092.157.093.156.096.157.093.152.092.156.096.154.096.152.096.152.097.153.096.153.096.148.099.154.096.148.1.15.1.15.1.148.1.15.103.148.1.146.103.149.1.147.103.145.104.149.103.147.107.141.104.146.106.146.104.143.107.143.106.146.107.144.106.143.107.138.111.142.107.143.11.139.11.143.111.139.11.139.11.139.11.14.114.135.111.139.114.138.11.135.231.273.228.27.231.271.232.266.235.265.235.263.239.26.239.26.239.26.242.256.246.257.242.253.25.254.245.248.25.25.252.244.249.246.253.243.256.241.257.238.257.239.259.238.26.235.26.236.264.23.263.232.263.227.268.228.267.224.268.225.27.225.27.22.271.219.275.22.273.215.274.217.275.21.277.212.278.211.277.207.281.211.278.201.281.207.285.2.281.202.285.199.281.197.289.198.285.192.285.196.288.188.289.193.288.187.289.19.292.185.288.185.292.182.292.183.292.178.292.182.292.174.296.178.292.175.295.171.295.171.292.17.295.168.3.168.295.168.296.163.295.163.299.16.296.16.295.156.299.157.299.157.295.155.299.15.3.151.295.151.299.148.298.151.296.146.299.142.299.146.295.143.3.139.299.139.295.14.299.134.295.141.295.13.298.136.296.129.295.131.295.129.295.127.295.129.296.125.295.125.295.119.292.122.292.121.295.118.292.116.292.117.289.115.292.114.292.113.289.11.288.11.289.106.289.11.285.107.289.102.285.104.284.104.286.103.281.099.281.1.282.101.281.097.281.096.278.092.278.096.277.094.274.088.273.094.274.088.274.088.271.087.271.086.27.087.267.08.267.082.267.082.264.082.264.077.263.079.26.074.26.079.26.076.256.069.256.075.249.071.509.14.499.139.491.132.485.128.48.124.474.121.466.113.459.115.452.109.445.104.438.104.431.096.424.092.414.094.405.086.398.085.388.079.381.077.37.075.363.066.353.068.345.064.332.059.324.059.317.054.302.054.292.047.282.045.273.043.26.039.249.036.235.036.228.031.21.028.203.024.188.025.175.021.16.018.149.014.463.047.463.047.463.046.463.042.462.039.463.039.463.037.463.035.463.035.459.031.463.033.459.027.459.029.46.025.459.024.458.021.46.022.458.018.455.019.457.018.459.015.455.011.456.01.452.011.455.007.453.008.455.002.453.005.451.004h.904l.449-.004.452-.007.448-.004.449-.008.448-.01.444-.011.449-.011.444-.016.445-.014.444-.018.445-.018.445-.021.442-.021.44-.022.441-.025.443-.024.439-.029.438-.027.441-.028.439-.032.434-.033.438-.034.436-.036.434-.035.434-.039.435-.04.431-.044.436-.041.43-.047.428-.043.432-.049.426-.047.428-.05.427-.054.427-.049.424-.057.424-.055.424-.057.42-.057.421-.061.42-.061.421-.064.42-.063.416-.063.416-.065.414-.067.416-.072.413-.066.413-.072.408-.073.413-.075.41-.075.405-.075.407-.078.407-.078.403-.082.406-.082.401-.081.402-.085.399-.086.401-.086.396-.088.399-.09.395-.089.396-.093.396-.094.39-.092.393-.096.392-.096.388-.096.389-.101.385-.1.387-.104.385-.099.384-.099.381-.107.381-.104.382-.106.376-.11.379-.107.373-.11.375-.114.373-.109.371-.113.369-.115.37-.117.367-.117.362-.117.367-.118.363-.12.359-.122.363-.124.359-.121.357-.125.355-.125.355-.127.352-.129.354-.128.348-.128.35-.132.349-.132.345-.133.344-.133.345-.137.341-.136.338-.136.338-.138.34-.14.334-.139.331-.139.335-.143.332-.143.326-.141.328-.146.323-.144.325-.149.324-.146.319-.145.32-.15.317-.149.314-.149.314-.152.311-.154.313-.153.307-.152.311-.156.307-.153.302-.157.303-.16.299-.155.3-.161.294-.159.297-.161.296-.16.29-.164.29-.163.288-.163.285-.165.284-.164.281-.167.281-.167.277-.168.277-.167.273-.17.275-.172.271-.17.27-.172.266-.17.266-.171.262-.176.266-.174.258-.175.257-.175.257-.178.252-.178.254-.175.248-.178.249-.181.247-.179.242-.178.242-.181.238-.184.238-.182.235-.181.233-.183.232-.184.229-.186.227-.182.225-.186.225-.186.22-.188.218-.186.219-.189.217-.184.209-.189.209-.188.212-.19.205-.188.204-.191.202-.189.199-.192.196-.188.196-.191.191-.193.192-.193.189-.191.184-.192.187-.194.181-.193.179-.195.178-.191.175-.197.175-.195.17-.195.167-.196.164-.196.164-.195.164-.195.16-.199.156-.196.153-.198.153-.197.149-.198.146-.196.146-.199.144-.199.142-.199.139-.199.136-.201.136-.198.132-.2.128-.198.124-.2.125-.199.125-.199.117-.203.117-.199.118-.2.109-.202.11-.199.111-.199.104-.203.102-.199.104-.203.099-.206.125-.26.129-.265.125-.263.123-.263.125-.264.125-.262.121-.262.121-.264.121-.26.117-.26.121-.265.118-.259.112-.26.119-.26.113-.26.113-.26.115-.26.113-.258.109-.26.111-.26.111-.256.105-.256.111-.262.105-.256.107-.256.104-.256.103-.256.108-.26.1-.257.102-.253.1-.256.101-.257.099-.256.101-.257.096-.253.097-.256.096-.257.096-.252.097-.256.093-.258.092-.253.09-.256.093-.253.089-.252.09-.257.088-.253.09-.256.084-.254.085-.252.087-.256.085-.253.082-.257.082-.252.081-.254.083-.256.077-.252.082-.258.079-.252.077-.254.076-.256.078-.252.074-.256.074-.253.072-.257.075-.252.071-.257.071-.253.071-.256.07-.256.068-.254.066-.256.068-.257.066-.256.065-.257.067-.256.064-.257.064-.256.06-.257.063-.256.061-.256.061-.26.062-.256.056-.257.061-.261.059-.26.056-.256.058-.26.053-.26.055-.262.054-.26.052-.258.055-.262.053-.258.05-.264.05-.262.049-.263.048-.259.05-.264.046-.264.046-.265.047-.262.047-.265.043-.264.041-.266.043-.264.043-.268.043-.268.039-.266.039-.268.04-.268.038-.27.04-.268.034-.271.037-.268.035-.271.035-.27.036-.275.032-.27.031-.271.033-.273.031-.273.033-.274.028-.274.027-.275.028-.277.029-.273.028-.278.024-.276.029-.277.025-.283.023-.277.022-.281.024-.281.021-.279.021-.283.021-.281.021-.283.018-.285.021-.286.018-.284.018-.285.018-.289.015-.287.014-.289.019-.288.014-.291.014-.289.012-.293.014-.29.011-.297.011-.293.012-.295.006-.295.012-.295.006-.3.008-.3.008-.299.006-.297.008-.3.003-.303.004-.304.003-.294.004-.302.004-.306v-.307l.003-.306v-.926l-.003-.312v-.313l-.004-.313-.004-.31-.003-.313-.011-.632-.015-.637-.014-.641-.018-.641-.022-.648-.021-.65-.026-.658-.027-.66-.028-.666-.032-.67-.035-.672-.039-.679-.039-.684-.043-.688-.044-.69-.05-.696-.049-.703-.049-.705-.059-.711-.053-.719-.061-.719-.061-.727-.064-.734-.068-.736-.066-.74-.071-.748-.071-.754-.074-.76-.078-.764-.083-.771-.082-.771-.081-.784-.089-.783-.089-.793-.091-.797-.091-.807-.096-.807-.098-.817-.1-.821-.102-.83-.108-.84-.024-.225-.025-.23-.025-.232-.025-.23-.02-.231-.02-.234-.018-.231-.014-.236-.014-.234-.014-.234-.012-.235-.007-.235-.008-.236-.006-.236-.005-.238-.003-.236v-.717l.003-.239.005-.238.006-.242.008-.238.011-.243.01-.241.012-.243.014-.241.014-.242.015-.242.019-.245.018-.243.021-.246.021-.241.021-.245.021-.246.023-.246.029-.246.025-.246.029-.248.031-.246.027-.248.032-.246.036-.249.033-.249.034-.25.039-.25.036-.248.04-.248.038-.25.043-.25.039-.252.043-.25.046-.252.043-.252.046-.254.047-.25.051-.252.045-.252.051-.254.053-.256.05-.253.054-.252.053-.257.054-.254.058-.256.053-.253.058-.257.062-.255.056-.257.061-.256.062-.256.059-.257.061-.257.064-.256.061-.256.063-.26.132-.515.133-.515.135-.516.139-.518.143-.519.143-.517.146-.52.149-.521.147-.52.154-.52.156-.523.157-.52.16-.523.161-.52.159-.523.163-.52.17-.523.166-.524.168-.52.169-.522.172-.523.171-.52.174-.523.176-.523.174-.52.174-.52.18-.521.172-.522.357-1.037.359-1.036.355-1.031.36-1.033.355-1.025.712-2.041.35-1.011.35-1.006.344-1.004.172-.495.168-.499.17-.494.164-.491.167-.492.163-.487.16-.488.16-.484.16-.483.156-.48.154-.478.152-.477.15-.475.145-.473.147-.467.142-.466.143-.463.14-.463.134-.456.133-.456.128-.452.128-.447.125-.449.121-.441.117-.441.113-.435.111-.435.057-.213.054-.214.05-.214.053-.214.051-.21.049-.213.051-.207.049-.209.047-.207.047-.211.045-.202.044-.206.042-.204.043-.202.043-.203.039-.199.039-.199.039-.199.039-.2.037-.195.035-.195.035-.192.031-.191.032-.193.032-.193.029-.188.027-.189.029-.188.027-.185.025-.186.062-.445.06-.444.057-.448.059-.445.056-.448.054-.448.055-.45.049-.448.053-.451.047-.449.05-.452.046-.452.043-.452.047-.452.042-.452.04-.455.038-.452.04-.456.039-.455.034-.456.032-.456.036-.456.03-.455.03-.456.028-.459.029-.456.025-.459.023-.459.021-.455.021-.46.021-.459.018-.46.019-.459.019-.463.013-.459.011-.459.015-.463.007-.46.011-.462.008-.459.003-.464.004-.459.004-.463v-1.385l-.004-.463-.007-.463-.008-.464-.006-.461-.012-.464-.011-.462-.015-.463-.013-.461-.016-.461-.017-.464-.022-.463-.021-.463-.021-.463-.024-.463-.026-.462-.027-.463-.028-.463-.032-.459-.031-.463-.032-.463-.036-.463-.039-.46-.039-.463-.039-.463-.042-.459-.043-.462-.046-.46-.051-.459-.049-.463-.051-.46-.055-.458-.053-.46-.057-.459-.057-.459-.061-.46-.061-.459-.063-.456-.065-.459-.066-.459-.068-.456-.071-.456-.071-.458-.074-.456-.075-.456-.079-.452-.076-.455-.084-.457-.082-.451-.084-.455-.085-.453-.089-.452-.09-.452-.092-.451-.094-.453-.096-.448-.1-.452-.1-.449-.1-.448-.103-.448-.108-.448-.106-.446-.11-.448-.111-.444-.108-.445-.118-.444-.114-.445-.121-.442-.12-.444-.121-.441-.125-.441-.125-.442-.132-.441-.128-.438-.132-.438-.134-.438-.137-.438-.14-.435-.142-.438-.143-.434-.141-.435-.146-.435-.15-.432-.15-.43-.152-.432-.152-.43-.157-.428-.161-.432-.159-.426-.164-.428-.164-.423-.167-.424-.168-.424-.169-.424-.175-.424-.175-.42-.178-.421-.179-.416-.182-.42-.186-.416-.185-.418-.188-.412-.189-.416-.191-.41-.193-.413-.199-.413-.195-.409-.204-.405-.202-.41-.203-.406-.209-.408-.104-.2-.104-.199-.107-.203-.105-.203-.107-.198-.107-.203-.105-.2-.107-.198-.11-.2-.11-.2-.111-.198-.109-.2-.11-.199-.11-.199-.115-.199-.109-.195-.113-.199-.113-.196-.115-.2-.117-.195-.115-.195-.116-.197-.113-.194-.117-.196-.118-.195-.12-.196-.118-.192-.121-.195-.117-.191-.121-.197-.121-.191-.125-.193-.121-.191-.121-.192-.125-.192-.124-.191-.124-.193-.125-.192-.125-.188-.128-.191-.128-.189-.125-.189-.129-.191-.131-.188-.129-.188-.128-.189-.131-.188-.132-.185-.133-.188-.132-.188-.13-.186-.137-.186-.131-.188-.137-.185-.135-.186-.137-.185-.133-.187-.141-.184-.138-.183-.136-.185-.139-.182-.139-.186-.143-.182-.139-.182-.143-.182-.143-.182-.143-.182-.142-.181-.144-.182-.142-.178-.146-.182-.146-.178-.146-.183-.146-.178-.146-.178-.15-.178-.148-.178-.146-.174-.149-.18-.149-.178-.153-.174-.15-.175-.151-.178-.154-.175-.152-.176-.154-.173-.156-.175-.154-.172-.155-.174-.156-.17-.157-.176-.156-.17-.16-.172-.156-.17-.16-.172-.161-.17-.159-.17-.161-.172-.163-.167-.164-.167-.159-.172-.165-.167-.167-.167-.163-.168-.168-.167-.163-.167-.169-.164-.166-.168-.171-.162-.167-.164-.172-.164-.172-.168-.169-.16-.171-.164-.172-.163-.174-.164-.17-.16-.175-.16-.175-.164-.18-.161-.172-.16-.18-.159-.178-.156-.179-.16-.178-.157-.178-.16-.182-.157-.178-.155-.181-.158-.184-.156-.184-.156-.182-.156-.186-.153-.186-.157-.185-.152-.185-.153-.189-.153-.185-.152-.188-.154-.189-.152-.188-.15-.192-.152-.189-.149-.192-.149-.191-.149-.192-.15-.191-.149-.197-.148-.191-.146-.195-.148-.197-.146-.199-.146-.194-.146-.2-.145-.199-.146-.199-.146-.199-.143-.199-.146-.203-.143-.203-.143-.203-.142-.203-.143-.203-.143-.205-.139-.207-.144-.206-.138-.208-.139-.206-.139-.21-.141-.209-.139-.211-.139-.211-.135-.209-.139-.213-.135-.215-.136-.213-.136-.215-.135-.213-.135-.217-.133-.217-.135-.217-.133-.217-.131-.218-.132-.222-.132-.221-.131-.221-.129-.22-.131-.222-.129-.223-.129-.226-.127-.224-.129-.225-.128-.225-.128-.229-.125-.227-.125-.229-.124-.228-.128-.232-.121-.227-.125-.235-.124-.549-.292-.549-.289-.547-.292-.553-.288-.547-.284-.549-.289-.552-.28-.548-.285-.553-.281-.548-.281-.55-.278-.551-.277-.549-.274-.551-.273-.548-.271-.553-.271-.552-.268-.551-.268-.553-.263-.551-.263-.553-.26-.551-.258-.553-.256-.553-.254-.555-.248-.555-.25-.279-.124-.277-.121-.277-.121-.277-.12-.277-.121-.279-.122-.276-.116-.277-.122-.278-.117-.277-.118-.281-.117-.277-.113-.278-.114-.281-.118-.278-.113-.281-.11-.277-.114-.281-.109-.281-.111-.277-.11-.281-.11-.281-.107-.281-.109-.282-.107-.28-.106-.281-.104-.281-.106-.281-.104-.281-.104-.285-.099-.28-.104-.282-.1-.285-.1-.281-.1-.283-.096-.285-.1-.285-.096-.281-.094-.285-.096-.285-.092-.283-.092-.286-.094-.287-.093-.286-.089-.285-.089-.284-.089-.289-.086-.288-.085-.285-.085-.287-.086-.289-.082-.288-.086-.288-.077-.289-.083-.289-.078-.287-.078-.289-.078-.293-.078-.287-.074-.293-.076-.287-.07-.291-.075-.293-.071-.293-.07-.291-.068-.291-.067-.297-.068-.291-.067-.293-.064-.295-.063-.296-.064-.292-.06-.295-.061-.295-.061-.296-.057-.296-.059-.373-.07-.37-.068-.371-.067-.37-.063-.373-.064-.375-.061-.373-.057-.375-.061-.373-.054-.374-.057-.374-.05-.373-.054-.377-.046-.378-.051-.374-.042-.377-.046-.377-.039-.378-.043-.378-.039-.377-.036-.381-.035-.378-.032-.382-.032-.377-.028-.38-.027-.378-.029-.381-.025-.381-.021-.381-.021-.381-.021-.38-.018-.382-.014-.381-.014-.385-.016-.381-.01-.381-.011-.385-.007-.381-.004-.385-.008h-.381l-.385-.003-.387-.016z"/>
  <path fill="#81A1C1" d="M497.429 423.555c-41.476-7.227-51.323-26.54-53.712-35.352-4.503-16.604-6.682-48.787-2.637-65.905 1.402-5.94 4.058-12.709 8.579-17.628 9.933-10.813 54.362-11.753 70.975-9.215 6.651 1.02 12.653 3.315 18.598 5.838 20.678 8.771 27.79 110.205-11.452 120.099-10.482 2.643-23.769 3.309-30.351 2.163z"/>
  <circle opacity=".2" fill="#ECEFF4" cx="425.54" cy="243.887" r="2.901"/>
  <circle opacity=".2" fill="#ECEFF4" cx="569.543" cy="249.157" r="2.902"/>
  <path fill="#BF616A" d="M459.92 253.877c-.848 4.283-6.33 16.558 1.093 19.838 8.242 3.638 12.4-5.071 15.835-13.287"/>
  <path fill="#4C566A" d="M460.087 251.25l.146.01.143.021.142.033.139.034.139.044.135.053.131.061.132.064.124.074.121.082.114.086.114.092.103.1.104.104.093.111.089.117.081.117.075.125.068.127.06.132.054.136.046.139.039.139.033.143.021.143.014.146.007.146v.142l-.011.146-.015.146-.028.143-.021.113-.028.129-.028.128-.029.132-.032.131-.032.133-.036.131-.032.136-.075.271-.075.277-.078.281-.082.288-.085.296-.089.299-.182.612-.186.638-.096.324-.092.328-.096.33-.092.334-.093.339-.093.342-.092.346-.043.171-.042.171-.042.175-.043.17-.042.175-.042.175-.039.174-.04.171-.039.175-.04.174-.035.176-.036.17-.035.175-.036.175-.032.17-.032.175-.028.171-.029.171-.029.171-.028.168-.025.17-.021.168-.025.168-.018.166-.022.168-.017.163-.015.16-.014.164-.015.161-.01.159-.01.157-.008.156-.007.156-.003.153v.149l-.004.15.004.146.003.146.003.146.007.139.007.145.007.064.004.068.006.067.007.068.007.064.007.067.007.063.007.064.01.064.007.063.01.063.011.062.007.061.014.061.01.06.011.062.011.057.014.057.015.061.01.054.015.057.014.058.014.053.018.053.014.055.015.053.018.051.014.049.018.05.018.05.018.051.018.05.018.046.021.047.018.045.018.047.021.043.021.046.018.043.021.042.022.043.021.039.021.043.024.039.022.039.025.039.021.039.025.039.021.036.024.036.025.039.025.035.029.036.025.032.024.035.029.035.028.033.025.031.029.035.028.033.032.031.029.033.032.031.028.028.032.031.032.028.032.033.036.027.032.033.036.028.036.027.035.03.04.027.04.029.04.028.039.028.04.029.042.027.043.029.042.025.046.027.042.025.05.027.046.026.05.028.05.025.05.023.054.026.053.024.061.025.071.031.074.033.075.031.075.032.075.027.071.028.075.025.071.029.068.025.071.024.071.021.067.021.068.022.067.021.068.021.063.018.068.018.064.019.064.014.063.015.064.018.061.012.064.014.06.01.061.012.061.01.057.011.061.011.057.007.06.007.057.008.054.008.056.003.058.007.053.004.057.003.054.005h.053l.054.003h.26l.05-.003.049-.005.05-.003.05-.004.049-.004.05-.003.05-.007.046-.004.05-.008.046-.007.049-.007.046-.007.047-.011.05-.007.046-.011.046-.012.047-.01.045-.01.047-.012.046-.014.046-.011.047-.015.046-.015.045-.015.046-.014.042-.014.047-.018.046-.015.046-.019.047-.018.046-.018.042-.021.046-.018.045-.021.046-.018.047-.021.046-.024.046-.021.043-.022.046-.024.046-.024.046-.025.046-.024.046-.026.047-.027.046-.025.046-.027.046-.029.046-.028.047-.032.046-.029.046-.031.046-.032.049-.032.046-.031.046-.035.047-.036.046-.035.046-.036.05-.035.046-.035.046-.04.05-.04.043-.035.096-.082.097-.085.096-.085.096-.086.093-.093.096-.093.096-.096.096-.1.096-.1.097-.107.096-.106.093-.106.096-.114.096-.114.096-.113.097-.121.092-.121.096-.121.096-.129.093-.127.096-.129.093-.131.096-.136.093-.139.092-.139.093-.14.093-.143.092-.146.092-.145.093-.15.093-.148.092-.154.089-.152.093-.157.089-.155.093-.161.089-.16.089-.159.089-.164.089-.164.089-.168.09-.167.084-.171.089-.171.09-.171.085-.171.086-.175.085-.174.089-.178.085-.18.085-.178.086-.178.082-.182.085-.178.168-.366.167-.366.167-.371.164-.373.164-.374.163-.378.161-.377.16-.381.16-.381.16-.381.061-.136.068-.128.075-.125.082-.121.086-.114.092-.11.1-.107.107-.1.109-.096.114-.084.121-.082.125-.076.128-.068.131-.06.136-.054.138-.045.139-.04.143-.028.143-.021.146-.015.146-.006h.142l.146.011.146.018.142.023.139.033.143.043.135.05.135.054.128.063.127.071.122.078.121.082.114.093.107.096.103.103.096.107.092.114.086.117.074.121.071.128.064.129.057.135.05.136.042.139.036.142.025.144.018.142.01.146.004.146-.007.142-.014.146-.021.143-.028.143-.036.143-.046.139-.054.135-.16.389-.167.393-.167.391-.167.395-.171.393-.171.395-.174.396-.178.395-.178.391-.182.393-.093.199-.089.195-.093.196-.096.196-.092.191-.096.196-.096.192-.096.195-.096.191-.096.193-.1.191-.1.189-.1.191-.1.189-.103.188-.103.188-.103.189-.103.185-.107.186-.107.185-.106.186-.107.182-.111.186-.11.178-.114.182-.11.178-.114.178-.114.179-.118.175-.118.174-.117.174-.122.172-.121.17-.121.168-.124.167-.125.168-.127.163-.128.164-.128.16-.132.16-.135.16-.132.156-.135.157-.139.153-.139.148-.143.149-.143.15-.146.146-.146.142-.149.143-.15.139-.153.139-.156.136-.153.128-.082.071-.082.064-.079.064-.082.063-.082.064-.082.061-.082.063-.085.062-.082.06-.085.058-.085.061-.085.057-.086.061-.086.057-.089.054-.085.056-.089.054-.089.054-.089.054-.093.054-.089.05-.093.049-.092.051-.092.05-.093.047-.093.05-.096.046-.096.043-.092.045-.097.044-.1.042-.096.039-.096.043-.1.04-.1.038-.1.036-.1.035-.1.035-.103.036-.1.032-.103.032-.103.032-.104.028-.103.028-.104.028-.106.025-.103.025-.107.024-.095.023-.106.021-.107.018-.107.021-.107.018-.11.018-.107.016-.11.014-.11.014-.107.01-.111.012-.11.011-.11.007-.114.008-.111.003-.11.008h-.114l-.11.003h-.224l-.114-.003-.115-.003-.11-.005-.114-.007-.114-.008-.114-.006-.114-.011-.114-.011-.114-.015-.114-.015-.114-.014-.117-.014-.115-.019-.114-.021-.113-.017-.118-.022-.114-.024-.114-.021-.117-.025-.114-.028-.114-.028-.117-.029-.114-.027-.118-.033-.114-.031-.117-.035-.114-.035-.118-.037-.114-.035-.118-.039-.117-.042-.115-.04-.117-.043-.118-.043-.114-.046-.117-.046-.118-.047-.114-.049-.118-.051-.121-.053-.114-.051-.118-.052-.114-.058-.114-.058-.114-.057-.114-.061-.11-.061-.111-.063-.106-.061-.107-.068-.107-.064-.106-.066-.104-.072-.1-.066-.103-.072-.1-.074-.1-.07-.096-.079-.096-.075-.092-.078-.096-.078-.089-.078-.093-.082-.089-.082-.085-.082-.089-.085-.085-.086-.082-.085-.082-.086-.078-.089-.082-.089-.075-.089-.079-.093-.074-.093-.071-.093-.071-.092-.072-.093-.067-.097-.067-.096-.064-.096-.064-.097-.064-.096-.06-.101-.061-.096-.057-.1-.057-.1-.057-.1-.053-.101-.053-.103-.05-.101-.05-.103-.049-.1-.047-.104-.046-.104-.043-.102-.043-.104-.042-.103-.039-.107-.04-.104-.039-.104-.036-.106-.035-.103-.036-.106-.032-.104-.032-.106-.032-.106-.028-.104-.028-.107-.028-.106-.025-.106-.025-.104-.025-.107-.021-.106-.025-.106-.018-.106-.021-.106-.018-.107-.018-.107-.018-.105-.018-.107-.014-.107-.015-.106-.014-.106-.014-.107-.011-.105-.011-.107-.011-.106-.007-.108-.01-.106-.007-.11-.015-.209-.01-.214-.007-.214-.004-.213v-.428l.004-.209.003-.215.011-.213.011-.211.01-.213.015-.21.018-.214.017-.21.021-.21.025-.211.021-.209.028-.211.025-.207.032-.209.028-.207.032-.206.036-.206.036-.207.036-.207.035-.203.04-.202.039-.202.042-.203.043-.203.042-.199.042-.2.043-.198.045-.197.046-.195.046-.195.046-.196.046-.192.05-.192.05-.191.05-.192.096-.371.1-.369.1-.363.1-.359.1-.35.1-.342.1-.338.189-.641.178-.612.086-.288.081-.277.075-.269.071-.256.067-.241.061-.229.028-.107.025-.104.025-.099.022-.096.021-.09.018-.089.018-.078.019-.089.035-.144.04-.139.049-.138.054-.132.064-.132.071-.128.075-.121.085-.121.089-.113.096-.108.104-.103.106-.1.114-.09.118-.084.121-.08.125-.07.132-.064.131-.057.139-.05.139-.042.138-.036.143-.028.146-.018.142-.011.146-.003.148.001zm29.378-21.855c8.035.495 14.305 5.045 13.992 10.152-.314 5.109-7.096 8.855-15.131 8.359-8.035-.494-14.304-5.041-13.988-10.148.313-5.11 7.092-8.859 15.127-8.363z"/>
  <path fill="#4C566A" d="M488.155 242.492l.113.007.118.011.113.018.114.025.114.027.114.032.11.036.107.043.106.05.104.049.104.058.1.061.096.064.092.07.092.075.085.075.085.082.079.085.075.089.075.093.067.093.064.1.057.1.058.104.05.104.046.105.039.111.035.11.032.113.025.114.021.114.014.113.011.118.007.117v.115l-.003.213-.007.22-.003.218-.007.217-.011.218-.007.217-.01.217-.012.214-.01.217-.014.215-.011.213-.014.213-.015.215-.018.213-.032.42-.033.424-.039.42-.039.417-.039.417-.043.416-.042.412-.042.414-.047.408-.089.816-.092.813-.093.803-.042.403-.046.398-.042.399-.043.397-.039.399-.04.398-.036.396-.036.395-.035.395-.029.402-.014.113-.014.118-.025.113-.025.114-.033.111-.035.109-.043.111-.045.105-.054.104-.053.104-.061.1-.064.097-.071.096-.071.089-.078.09-.078.084-.085.08-.089.078-.089.07-.097.068-.096.064-.099.061-.104.057-.104.05-.106.046-.11.043-.111.035-.11.031-.114.029-.118.021-.114.015-.117.015-.114.002-.118.004-.118-.004-.113-.01-.119-.015-.113-.018-.114-.024-.115-.029-.109-.035-.11-.039-.107-.047-.106-.046-.103-.054-.1-.061-.1-.061-.096-.066-.092-.072-.089-.074-.085-.079-.082-.081-.078-.086-.075-.089-.072-.093-.067-.096-.061-.1-.06-.1-.05-.104-.05-.107-.042-.109-.039-.107-.036-.114-.028-.109-.025-.114-.018-.118-.014-.113-.011-.118-.003-.117v-.113l.007-.117.032-.418.035-.423.039-.421.04-.419.042-.417.04-.416.045-.412.043-.414.046-.41.046-.41.089-.811.093-.809.089-.805.046-.395.043-.398.039-.398.04-.396.039-.396.035-.396.036-.392.032-.391.028-.396.015-.192.015-.195.014-.196.011-.196.01-.195.011-.191.011-.197.007-.195.01-.192.007-.194.004-.197.007-.191.003-.196.003-.2.007-.117.011-.117.014-.113.018-.115.028-.113.029-.113.035-.111.039-.109.046-.107.05-.106.054-.103.057-.101.064-.097.067-.096.072-.093.074-.089.082-.086.082-.082.085-.078.093-.07.093-.072.096-.066.1-.062.1-.056.103-.054.107-.046.11-.045.11-.037.11-.032.114-.028.114-.025.114-.018.118-.015.114-.007.117-.004.118.002z"/>
  <path fill="#4C566A" d="M510.545 246.482l.227.025.225.047.222.063.213.085.206.104.197.117.184.139.176.15.156.167.146.178.125.192.11.203.094.21.073.218.053.225.034.227.012.229-.003.23-.024.229-.046.225-.064.22-.086.215-.103.206-.117.195-.139.186-.219.274-.223.274-.229.273-.225.271-.227.27-.229.271-.232.267-.23.264-.231.263-.235.26-.235.26-.233.257-.122.128-.122.128-.117.128-.121.125-.121.125-.12.128-.124.124-.121.122-.125.124-.121.125-.125.121-.124.121-.126.121-.127.121-.125.117-.129.12-.125.118-.127.117-.129.117-.131.118-.129.114-.131.113-.131.117-.133.111-.133.113-.13.114-.137.11-.134.11-.137.109-.135.107-.136.11-.138.106-.139.107-.135.106-.143.104-.141.106-.143.104-.139.1-.143.102-.146.101-.143.1-.146.1-.146.101-.146.096-.146.096-.149.097-.15.093-.148.092-.151.092-.151.094-.153.092-.154.09-.152.085-.153.089-.157.086-.155.085-.157.085-.159.082-.161.082-.16.082-.16.082-.164.078-.161.075-.163.079-.167.074-.165.074-.167.075-.168.071-.166.071-.172.067-.171.067-.17.067-.171.068-.174.063-.174.063-.175.061-.175.062-.177.061-.178.058-.178.056-.179.058-.181.053-.182.054-.182.054-.185.049-.186.051-.185.05-.186.046-.188.043-.189.047-.189.043-.188.039-.192.039-.192.039-.192.038-.196.036-.196.031-.196.037-.196.028-.199.031-.2.028-.199.029-.203.024-.2.025-.203.021-.206.021-.203.021-.207.018-.207.018-.209.016-.21.018-.21.01-.21.011-.214.011-.213.011-.214.007-.214.004-.217.004-.216.004h-.662l-.221-.004-.225-.004-.224-.007-.224-.007-.228-.011-.228-.012-.228-.014-.228-.011-.232-.018-.235-.014-.231-.022-.234-.018-.236-.021-.238-.025-.239-.025-.239-.024-.238-.028-.243-.029-.242-.028-.246-.032-.246-.035-.245-.035-.25-.035-.249-.04-.25-.039-.253-.042-.252-.043-.253-.047-.257-.047-.256-.047-.26-.049-.26-.053-.26-.051-.263-.057-.264-.054-.264-.06-.267-.057-.267-.062-.271-.063-.27-.064-.271-.064-.274-.067-.275-.071-.277-.067-.278-.075-.278-.074-.281-.074-.285-.078-.281-.079-.285-.079-.289-.084-.288-.083-.288-.085-.292-.09-.292-.088-.296-.09-.295-.092-.3-.098-.298-.096-.3-.096-.302-.1-.303-.103-.306-.104-.306-.102-.31-.107-.31-.107-.313-.109-.313-.115-.316-.113-.317-.113-.317-.118-.32-.117-.324-.121-.324-.125-.324-.124-.328-.125-.331-.129-.328-.127-.335-.132-.334-.136-.335-.136-.338-.139-.341-.139-.342-.138-.342-.143-.345-.146-.346-.146-.349-.149-.353-.149-.353-.153-.355-.153-.356-.156-.355-.156-.364-.16-.359-.164-.363-.164-.366-.164-.371-.167-.367-.171-.374-.171-.374-.175-.373-.174-.378-.178-.38-.178-.382-.182-.384-.186-.384-.186-.388-.184-.392-.189-.388-.192-.203-.11-.192-.125-.179-.146-.167-.156-.153-.17-.135-.187-.121-.194-.099-.207-.086-.214-.064-.221-.046-.225-.029-.231-.003-.227.014-.229.032-.229.057-.225.071-.217.092-.209.111-.204.125-.192.146-.178.157-.167.17-.153.185-.135.196-.121.207-.104.213-.082.22-.068.225-.045.228-.025.231-.004.227.015.229.032.224.053.217.076.21.092.384.185.381.187.376.181.375.182.374.178.373.178.367.175.367.172.367.17.363.167.359.167.36.164.356.164.352.16.353.157.349.155.349.154.346.152.345.153.342.146.342.149.338.144.334.143.335.143.331.139.331.139.328.135.324.131.324.133.324.132.32.124.316.129.317.124.313.12.313.122.31.118.31.117.306.113.306.115.303.109.3.11.298.107.299.106.292.104.296.103.292.1.289.1.289.097.285.096.285.094.281.092.281.088.282.09.273.086.278.086.271.085.274.082.267.077.271.078.263.08.267.074.263.07.26.072.261.07.256.068.256.067.253.063.253.064.249.061.25.061.249.057.246.057.242.057.242.055.242.053.238.051.239.05.235.046.234.047.232.045.231.044.228.042.228.039.225.039.225.035.224.036.221.036.221.032.217.031.217.028.213.029.214.027.209.025.214.022.207.024.207.021.207.019.207.021.203.018.2.014.199.016.2.014.196.01.195.012.196.011.192.007.188.007.192.003.189.004.185.004h.186l.186.004.185-.004h.182l.178-.004.178-.007.178-.003.178-.008.175-.012.175-.006.17-.011.171-.011.171-.015.167-.014.168-.015.167-.018.167-.018.164-.019.16-.021.164-.018.16-.025.157-.021.16-.024.157-.024.157-.025.153-.029.153-.029.153-.027.154-.028.148-.032.15-.031.15-.036.146-.032.146-.036.146-.039.146-.036.143-.038.143-.04.142-.038.142-.044.139-.042.139-.042.139-.043.139-.047.135-.046.135-.047.136-.05.135-.046.131-.05.135-.053.132-.051.131-.054.129-.053.131-.054.128-.057.128-.057.128-.057.128-.058.125-.061.127-.062.125-.059.125-.062.125-.064.12-.063.125-.064.122-.063.121-.068.122-.067.122-.066.121-.068.121-.071.117-.071.122-.072.117-.069.118-.075.118-.075.117-.075.113-.074.118-.079.117-.078.114-.077.114-.079.113-.081.114-.083.114-.081.113-.082.114-.086.113-.086.11-.085.115-.085.109-.086.111-.089.113-.089.11-.093.11-.089.109-.092.111-.094.105-.093.111-.096.109-.093.108-.096.109-.1.108-.096.108-.1.107-.101.107-.099.11-.101.107-.104.105-.103.107-.104.106-.104.106-.104.107-.106.107-.106.105-.107.104-.109.105-.107.109-.109.105-.111.104-.113.107-.111.102-.11.211-.231.211-.23.209-.232.209-.238.211-.238.206-.242.21-.245.211-.251.207-.248.21-.256.206-.257.214-.26.153-.175.164-.156.182-.146.191-.125.199-.11.209-.092.223-.076.221-.053.227-.033.231-.014.24.002z"/>
  <path opacity=".2" fill="#D8DEE9" d="M459.229 161.35c3.059-.926 5.935-.391 6.416 1.196.481 1.589-1.613 3.628-4.674 4.557-3.059.926-5.935.393-6.416-1.196-.481-1.588 1.612-3.628 4.674-4.557zm111.642 13.556c2.058 2.449 2.693 5.301 1.427 6.369-1.271 1.064-3.968-.057-6.027-2.506-2.058-2.449-2.694-5.301-1.424-6.369 1.266-1.064 3.968.057 6.024 2.506z"/>
  <path fill="#ECEFF4" stroke="#4C566A" stroke-width="5" stroke-linecap="round" stroke-linejoin="round" stroke-miterlimit="1.5" d="M438.52 171.977c16.306-2.32 31.425 9.028 33.746 25.334 2.322 16.302-9.028 31.425-25.333 33.746-16.302 2.321-31.425-9.028-33.746-25.334-2.322-16.301 9.027-31.424 25.333-33.746zm105.165 8.736c16.307-2.32 31.43 9.033 33.751 25.334 2.32 16.305-9.033 31.425-25.334 33.75-16.306 2.32-31.429-9.032-33.75-25.334-2.323-16.305 9.031-31.428 25.333-33.75z"/>
  <path fill="#434C5E" d="M442.493 205.698c5.789-.823 11.161 3.208 11.987 9.001.822 5.787-3.208 11.16-9 11.985-5.792.823-11.161-3.207-11.987-9-.826-5.788 3.208-11.16 9-11.986zm95.905 5.962c5.792-.824 11.161 3.209 11.986 9.001.826 5.789-3.207 11.161-8.996 11.983-5.793.826-11.164-3.205-11.987-8.996-.825-5.793 3.205-11.16 8.997-11.988z"/>
  <path fill="#ECEFF4" d="M444.312 217.767a2.98 2.98 0 0 1 3.368 2.528 2.976 2.976 0 1 1-3.368-2.528zm91.709 5.062a2.974 2.974 0 0 1 3.363 2.528 2.978 2.978 0 0 1-2.529 3.364 2.978 2.978 0 0 1-3.363-2.528 2.98 2.98 0 0 1 2.529-3.364z"/>
  <path fill="#4C566A" d="M604.385 321.863c-.613-4.371-3.172-8.102-7.029-10.246l-24.215-13.45c-3.896-2.167-6.092-6.587-5.46-11.002l.622-4.368a10.453 10.453 0 0 0-2.938-8.816c-4.05-4.051-10.643-4.051-14.692 0l-57.535 57.529-110.861 110.859a10.342 10.342 0 0 0-3.042 7.351c0 2.774 1.081 5.384 3.042 7.343l.05.051 22.024 21.162c.018.02.041.036.063.055.049.049.104.094.157.141.036.025.076.058.113.086.049.035.094.066.145.098.054.036.107.067.162.1.037.022.072.045.113.063.072.041.148.072.221.109.022.008.04.018.058.025a1.877 1.877 0 0 0 .253.086c.022.01.049.018.072.026.067.019.13.032.198.051l.117.026c.036.01.068.01.104.015.172.026.347.045.519.045h.036a4.34 4.34 0 0 0 .392-.031c.041-.005.077-.011.118-.014.135-.028.27-.055.405-.095h.009c.139-.04.274-.096.41-.158a.44.44 0 0 1 .081-.035c.118-.059.225-.123.338-.19.019-.013.036-.022.054-.032a4.06 4.06 0 0 0 .338-.26c.032-.028.059-.059.09-.087.041-.04.086-.075.125-.116.036-.035.064-.077.1-.112a1.02 1.02 0 0 1 .085-.1c.09-.112.171-.23.248-.353.014-.017.023-.04.032-.059a2.79 2.79 0 0 0 .189-.379c.009-.008.012-.021.021-.035l4.177-10.142 7.102 1.112a3.315 3.315 0 0 0 3.752-2.569l1.46-6.681 6.597 1.031a3.311 3.311 0 0 0 3.753-2.568l1.459-6.68 6.592 1.035a3.324 3.324 0 0 0 3.758-2.568l1.456-6.682 6.586 1.035a3.314 3.314 0 0 0 3.759-2.567l1.456-6.678 6.591 1.036a3.318 3.318 0 0 0 3.754-2.574l1.451-6.668 6.586 1.036a3.317 3.317 0 0 0 3.754-2.572l1.451-6.669 6.583 1.037a3.317 3.317 0 0 0 3.757-2.572l1.441-6.66 6.579 1.036a3.314 3.314 0 0 0 3.758-2.567l1.451-6.674 6.584 1.037a3.315 3.315 0 0 0 3.756-2.574l1.443-6.654 6.56 1.046a3.322 3.322 0 0 0 3.763-2.573l1.45-6.672 6.583 1.041a3.323 3.323 0 0 0 3.758-2.574l1.451-6.668 6.588 1.031a3.316 3.316 0 0 0 3.757-2.572l1.446-6.67 6.57 1.037h.004l.01.005c.157.022.311.03.465.036h.119c.064-.006.123-.006.186-.01.045-.004.09-.008.135-.014.063-.007.131-.018.193-.025.041-.01.083-.019.117-.023.068-.019.136-.031.199-.05.041-.013.076-.022.112-.036l.193-.066c.037-.014.073-.032.112-.046.061-.026.119-.054.178-.085.039-.018.076-.041.113-.059.057-.031.111-.063.165-.1.036-.022.071-.051.108-.072.054-.035.107-.076.158-.117a2.285 2.285 0 0 0 .252-.216c.018-.017.037-.032.054-.05l35.077-35.078c3.12-3.12 4.557-7.413 3.946-11.779zm-55.733 48.95l-6.588-1.035a3.322 3.322 0 0 0-3.758 2.572l-1.445 6.67-6.588-1.037a3.321 3.321 0 0 0-3.758 2.573l-1.445 6.667-6.57-1.044a3.313 3.313 0 0 0-3.758 2.572l-1.441 6.659-6.578-1.035a3.312 3.312 0 0 0-3.758 2.568l-1.451 6.672-6.583-1.041a3.322 3.322 0 0 0-3.757 2.578l-1.441 6.658-6.579-1.04a3.318 3.318 0 0 0-3.758 2.572l-1.451 6.674-6.592-1.037a3.318 3.318 0 0 0-3.753 2.575l-1.447 6.667-6.587-1.036a3.315 3.315 0 0 0-3.757 2.568l-1.456 6.682-6.591-1.041a3.317 3.317 0 0 0-3.754 2.572l-1.455 6.68-6.596-1.037a3.316 3.316 0 0 0-3.753 2.572l-1.46 6.683-6.596-1.037a3.317 3.317 0 0 0-3.753 2.568l-1.455 6.687-6.606-1.035a3.328 3.328 0 0 0-3.578 2.012l-3.316 8.062-18.487-17.765a3.728 3.728 0 0 1-1.081-2.636c0-1.006.392-1.947 1.099-2.659l108.517-108.513 7.939 7.939a31.76 31.76 0 0 0 12.359 7.638l34.031 11.344-1.165 5.344zm47.1-41.863l-33.627 33.627-44.246-14.747a25.157 25.157 0 0 1-9.766-6.033l-7.938-7.94 55.186-55.186a3.722 3.722 0 0 1 2.654-1.1c1.004 0 1.945.389 2.658 1.1a3.78 3.78 0 0 1 1.063 3.19l-.627 4.365c-1.012 7.119 2.524 14.248 8.811 17.74l24.213 13.449a7.233 7.233 0 0 1 3.682 5.366 7.236 7.236 0 0 1-2.063 6.169z"/>
  <path fill="#88C0D0" d="M597.814 322.782a7.23 7.23 0 0 0-3.682-5.366l-24.213-13.449c-6.286-3.492-9.822-10.621-8.811-17.74l.627-4.365a3.773 3.773 0 0 0-1.063-3.19 3.734 3.734 0 0 0-2.658-1.1c-1 0-1.947.389-2.654 1.1l-55.186 55.186 7.938 7.94a25.126 25.126 0 0 0 9.766 6.033l44.246 14.747 33.627-33.627a7.232 7.232 0 0 0 2.063-6.169zm-26.507 10.607l-11.683 11.684-29.238-9.751a25.065 25.065 0 0 1-7.578-4.091l14.571-14.571a.227.227 0 0 1 .256-.042l33.609 16.416c.035.014.104.049.122.162.019.112-.036.166-.059.193z"/>
  <path fill="#4C566A" d="M577.908 332.1a6.872 6.872 0 0 0-3.753-5.028l-33.608-16.414a6.854 6.854 0 0 0-7.854 1.312l-17.041 17.041a3.316 3.316 0 0 0-.004 4.691l.283.277a31.803 31.803 0 0 0 12.354 7.639l31.185 10.394a3.32 3.32 0 0 0 3.393-.802l13.13-13.134a6.857 6.857 0 0 0 1.915-5.976zm-6.601 1.289l-11.683 11.684-29.238-9.751a25.065 25.065 0 0 1-7.578-4.091l14.571-14.571a.227.227 0 0 1 .256-.042l33.609 16.416c.035.014.104.049.122.162.019.112-.036.166-.059.193zm12.226-15.694l-33.611-16.416a3.318 3.318 0 0 0-4.436 1.525 3.32 3.32 0 0 0 1.525 4.436l33.612 16.414a3.316 3.316 0 0 0 2.91-5.959z"/>
  <path fill="#D8DEE9" d="M515.783 354.125a31.753 31.753 0 0 1-12.359-7.638l-7.939-7.939-108.517 108.513a3.743 3.743 0 0 0-1.099 2.659c0 .995.383 1.927 1.081 2.636l18.487 17.765 3.316-8.062a3.327 3.327 0 0 1 3.578-2.012l6.606 1.035 1.455-6.687a3.317 3.317 0 0 1 3.753-2.568l6.596 1.037 1.46-6.683a3.316 3.316 0 0 1 3.753-2.572l6.596 1.037 1.455-6.68a3.317 3.317 0 0 1 3.754-2.572l6.591 1.041 1.456-6.682a3.313 3.313 0 0 1 3.757-2.568l6.587 1.036 1.447-6.667a3.32 3.32 0 0 1 3.753-2.575l6.592 1.037 1.451-6.674a3.317 3.317 0 0 1 3.758-2.572l6.579 1.04 1.441-6.658a3.322 3.322 0 0 1 3.757-2.578l6.583 1.041 1.451-6.672a3.31 3.31 0 0 1 3.758-2.568l6.578 1.035 1.441-6.659a3.313 3.313 0 0 1 3.758-2.572l6.57 1.044 1.445-6.667a3.32 3.32 0 0 1 3.758-2.573l6.588 1.037 1.445-6.67a3.322 3.322 0 0 1 3.758-2.572l6.588 1.035 1.162-5.344-34.028-11.344zm-30.461 9.59l-32.518 32.518a3.305 3.305 0 0 1-2.346.971 3.295 3.295 0 0 1-2.343-.971 3.314 3.314 0 0 1 0-4.689l32.517-32.518a3.314 3.314 0 0 1 4.689 0 3.314 3.314 0 0 1 .001 4.689zm10.005-10.004l-2.501 2.5a3.3 3.3 0 0 1-2.345.973 3.317 3.317 0 0 1-2.345-5.662l2.501-2.501a3.317 3.317 0 0 1 4.69 4.69z"/>
  <path fill="#EBCB8B" stroke="#4C566A" stroke-width="5" stroke-linecap="round" stroke-linejoin="round" stroke-miterlimit="1.5" d="M499.23 339.086s-25.259-6.787-30.022-21.829c-4.764-15.037 6.946-22.05 14.643-12.784 7.693 9.268 15.729 17.31 25.394 17.637 9.663.325 5.884 21.413-10.015 16.976zm81.559 7.062s26.053 2.323 35.705-10.157c9.65-12.479 1.066-23.095-9.346-17.043-10.418 6.048-20.73 10.837-29.917 7.814-9.184-3.022-12.897 18.08 3.558 19.386z"/>
</svg>
