<svg xmlns="http://www.w3.org/2000/svg" viewBox="0 0 512 473.298">
  <path fill="#4C566A" d="M511.686 115.727c-1.394-9.934-7.209-18.412-15.976-23.286l-55.03-30.567c-8.857-4.925-13.844-14.971-12.41-25.006l1.413-9.923c1.044-7.321-1.454-14.806-6.677-20.039-9.206-9.206-24.188-9.206-33.393 0L258.858 137.649 6.912 389.595C2.458 394.06 0 399.99 0 406.297a23.45 23.45 0 0 0 6.912 16.69l.112.114 50.054 48.096c.041.042.092.082.143.124.113.112.235.214.358.318.082.06.174.132.256.193.113.082.215.154.328.225.123.082.246.153.369.226.082.053.164.103.256.145.164.092.338.164.501.246.052.02.093.04.133.06.01 0 .021 0 .031.01.185.072.358.134.542.187.052.02.113.04.164.06.153.042.297.072.451.114.092.02.185.04.266.06.082.022.154.022.236.032a7.68 7.68 0 0 0 1.177.103h.082c.297-.011.594-.03.891-.072.092-.01.174-.021.267-.03.307-.062.614-.124.921-.216h.021c.317-.092.625-.214.932-.358.062-.029.123-.062.184-.082.266-.132.512-.275.768-.43a.786.786 0 0 1 .123-.072c.267-.184.512-.378.768-.594.072-.06.133-.132.205-.194.092-.092.194-.174.287-.266.082-.082.144-.174.226-.256.062-.082.123-.154.194-.227a8.5 8.5 0 0 0 .563-.798c.031-.042.052-.092.072-.134.163-.276.307-.562.43-.86.021-.02.031-.05.051-.082l9.492-23.05 16.139 2.53a7.542 7.542 0 0 0 8.53-5.838l3.318-15.187 14.992 2.347a7.526 7.526 0 0 0 8.53-5.839l3.317-15.184 14.981 2.354c3.942.614 7.69-1.945 8.541-5.836l3.307-15.186 14.971 2.354a7.528 7.528 0 0 0 8.541-5.836l3.308-15.176 14.981 2.356a7.541 7.541 0 0 0 8.53-5.849l3.297-15.154 14.972 2.354a7.54 7.54 0 0 0 8.53-5.846l3.297-15.156 14.961 2.355c3.942.624 7.69-1.945 8.54-5.848l3.276-15.134 14.951 2.354a7.533 7.533 0 0 0 8.54-5.836l3.297-15.166 14.961 2.356a7.536 7.536 0 0 0 8.54-5.849l3.277-15.124 14.909 2.376a7.548 7.548 0 0 0 8.551-5.848l3.297-15.164 14.961 2.364a7.549 7.549 0 0 0 8.54-5.847l3.297-15.156 14.972 2.347a7.537 7.537 0 0 0 8.54-5.848l3.287-15.154 14.93 2.354h.01l.021.012c.357.05.706.07 1.054.08h.277c.143-.01.275-.01.42-.02l.307-.03.44-.062c.092-.02.185-.04.267-.05.153-.042.308-.072.45-.114.092-.03.174-.05.256-.082.144-.05.297-.102.44-.154.082-.03.164-.07.256-.102.134-.06.267-.122.399-.194.093-.04.175-.092.257-.134.133-.07.256-.142.379-.224.082-.052.164-.114.245-.164.123-.082.245-.174.358-.266a4.733 4.733 0 0 0 .574-.492c.041-.04.082-.072.123-.112l79.719-79.72c7.085-7.084 10.35-16.843 8.959-26.764zM385.025 226.973l-14.971-2.354a7.545 7.545 0 0 0-8.54 5.846l-3.287 15.156-14.971-2.355a7.55 7.55 0 0 0-8.54 5.848l-3.287 15.154-14.931-2.374a7.527 7.527 0 0 0-8.54 5.846l-3.276 15.135-14.95-2.354a7.531 7.531 0 0 0-8.541 5.836l-3.297 15.166-14.962-2.366a7.552 7.552 0 0 0-8.54 5.858l-3.276 15.134-14.951-2.363c-3.943-.626-7.69 1.943-8.54 5.846l-3.297 15.166-14.981-2.356a7.541 7.541 0 0 0-8.53 5.849l-3.287 15.154-14.971-2.354a7.532 7.532 0 0 0-8.54 5.836l-3.308 15.187-14.981-2.366a7.54 7.54 0 0 0-8.53 5.848l-3.308 15.177-14.992-2.356a7.54 7.54 0 0 0-8.53 5.848l-3.318 15.187-14.991-2.356a7.542 7.542 0 0 0-8.53 5.836l-3.308 15.196-15.011-2.354a7.561 7.561 0 0 0-8.131 4.576l-7.536 18.319-42.015-40.376a8.462 8.462 0 0 1-2.457-5.99c0-2.284.89-4.424 2.498-6.042L264.193 153.65l18.043 18.043a72.2 72.2 0 0 0 28.088 17.357l77.344 25.784-2.643 12.139zm107.04-95.14l-76.422 76.421-100.558-33.516a57.103 57.103 0 0 1-22.189-13.711l-18.043-18.043 125.419-125.42a8.453 8.453 0 0 1 6.032-2.498c2.283 0 4.423.881 6.041 2.498a8.596 8.596 0 0 1 2.417 7.25l-1.423 9.923c-2.305 16.179 5.734 32.379 20.019 40.315l55.03 30.566c4.587 2.55 7.64 6.994 8.366 12.196.728 5.203-.982 10.312-4.689 14.019z"/>
  <path fill="#88C0D0" d="M496.755 117.814c-.727-5.202-3.779-9.646-8.366-12.196l-55.03-30.566c-14.284-7.936-22.323-24.136-20.019-40.315l1.423-9.923a8.596 8.596 0 0 0-2.417-7.25 8.475 8.475 0 0 0-6.041-2.498 8.453 8.453 0 0 0-6.032 2.498l-125.419 125.42 18.043 18.043a57.103 57.103 0 0 0 22.189 13.711l100.558 33.516 76.422-76.421c3.706-3.707 5.416-8.816 4.689-14.019zm-60.242 24.106l-26.553 26.552-66.447-22.16a57.065 57.065 0 0 1-17.225-9.298l33.117-33.116a.513.513 0 0 1 .583-.092l76.381 37.304c.082.031.235.113.276.369s-.082.379-.132.441z"/>
  <path fill="#4C566A" d="M451.514 138.991a15.607 15.607 0 0 0-8.53-11.427l-76.38-37.305a15.577 15.577 0 0 0-17.848 2.98l-38.729 38.728a7.537 7.537 0 0 0-.01 10.66l.645.634a72.25 72.25 0 0 0 28.078 17.358l70.871 23.623a7.595 7.595 0 0 0 2.376.389 7.542 7.542 0 0 0 5.335-2.212l29.84-29.849a15.578 15.578 0 0 0 4.352-13.579zm-15.001 2.929l-26.553 26.552-66.447-22.16a57.065 57.065 0 0 1-17.225-9.298l33.117-33.116a.513.513 0 0 1 .583-.092l76.381 37.304c.082.031.235.113.276.369s-.082.379-.132.441zm27.787-35.668l-76.388-37.306a7.537 7.537 0 0 0-6.614 13.545l76.387 37.306a7.536 7.536 0 0 0 10.08-3.465c1.825-3.742.275-8.255-3.465-10.08z"/>
  <path fill="#D8DEE9" d="M310.324 189.045a72.2 72.2 0 0 1-28.088-17.357l-18.043-18.043-246.621 246.61a8.513 8.513 0 0 0-2.498 6.042 8.46 8.46 0 0 0 2.457 5.99l42.015 40.376 7.536-18.319a7.562 7.562 0 0 1 8.131-4.576l15.011 2.354 3.308-15.196a7.542 7.542 0 0 1 8.53-5.836l14.991 2.356 3.318-15.187a7.54 7.54 0 0 1 8.53-5.848l14.992 2.356 3.308-15.177a7.54 7.54 0 0 1 8.53-5.848l14.981 2.366 3.308-15.187a7.532 7.532 0 0 1 8.54-5.836l14.971 2.354 3.287-15.154a7.541 7.541 0 0 1 8.53-5.849l14.981 2.356 3.297-15.166c.85-3.902 4.597-6.472 8.54-5.846l14.951 2.363 3.276-15.134a7.55 7.55 0 0 1 8.54-5.858l14.962 2.366 3.297-15.166a7.531 7.531 0 0 1 8.541-5.836l14.95 2.354 3.276-15.135a7.528 7.528 0 0 1 8.54-5.846l14.931 2.374 3.287-15.154a7.552 7.552 0 0 1 8.54-5.848l14.971 2.355 3.287-15.156a7.545 7.545 0 0 1 8.54-5.846l14.971 2.354 2.643-12.144-77.345-25.778zm-69.227 21.796l-73.899 73.9a7.51 7.51 0 0 1-5.33 2.208 7.505 7.505 0 0 1-5.328-2.208 7.532 7.532 0 0 1 0-10.657l73.9-73.901a7.537 7.537 0 0 1 10.657 10.658zm22.738-22.738l-5.685 5.686a7.507 7.507 0 0 1-5.327 2.208 7.538 7.538 0 0 1-5.33-12.867l5.684-5.685a7.537 7.537 0 0 1 10.658 10.658z"/>
</svg>
