<svg xmlns="http://www.w3.org/2000/svg" viewBox="0 0 1000 600">
  <path fill="#88C0D0" d="M416.767 382.536c.47 7.438 6.029 11.743 13.31 11.743 5.246 0 12.762-1.565 12.762-8.533 0-6.812-6.89-7.83-13.78-9.239-6.968-1.409-13.857-3.21-13.857-11.431 0-7.985 7.751-10.334 14.562-10.334 8.534 0 14.876 3.68 14.876 12.84h-2.975c-.079-7.281-5.167-10.257-11.901-10.257-5.48 0-11.587 2.036-11.587 7.751 0 6.42 6.89 7.438 13.388 8.848 7.986 1.487 14.25 3.366 14.25 11.822 0 8.69-8.69 11.117-15.737 11.117-9.16 0-16.05-4.933-16.285-14.327h2.974zm36.252-26.854h2.975v8.612h.157c2.036-6.029 8.143-9.552 14.406-9.552 14.171 0 14.328 11.353 14.328 16.284v24.897h-2.975v-25.445c0-4.149-.47-13.153-11.431-13.153-9.004 0-14.484 6.969-14.484 16.833v21.766h-2.975v-40.242zm57.236-.94c11.822 0 18.478 9.63 18.478 21.061s-6.655 21.061-18.478 21.061-18.477-9.63-18.477-21.061 6.655-21.061 18.477-21.061zm0 39.537c10.1 0 15.502-8.847 15.502-18.477s-5.402-18.478-15.502-18.478-15.502 8.848-15.502 18.478 5.402 18.477 15.502 18.477zm35.47-1.8h.156l10.961-36.797h3.993l11.039 36.797h.156l11.274-36.797h3.288l-12.918 40.242h-3.68l-11.039-36.484h-.157l-11.117 36.484h-3.758l-12.762-40.242h3.21l11.354 36.797z"/>
  <path fill="#2E3440" d="M592.235 382.536c.47 7.438 6.028 11.743 13.31 11.743 5.245 0 12.762-1.565 12.762-8.533 0-6.812-6.89-7.83-13.779-9.239-6.969-1.409-13.858-3.21-13.858-11.431 0-7.985 7.751-10.334 14.563-10.334 8.534 0 14.876 3.68 14.876 12.84h-2.976c-.078-7.281-5.167-10.257-11.9-10.257-5.48 0-11.587 2.036-11.587 7.751 0 6.42 6.89 7.438 13.388 8.848 7.986 1.487 14.249 3.366 14.249 11.822 0 8.69-8.69 11.117-15.736 11.117-9.16 0-16.05-4.933-16.285-14.327h2.973zm65.925 5.95c0 2.349 0 4.854 2.662 4.854.548 0 1.252-.078 2.191-.234v2.505c-.86.157-1.644.313-2.427.313-4.697 0-5.402-2.584-5.402-5.872v-2.114h-.156c-1.879 4.776-7.281 8.926-14.954 8.926-7.595 0-13.467-2.896-13.467-11.353 0-9.395 8.143-11.353 14.798-11.9 13.31-.939 13.857-1.801 13.857-8.377 0-1.801-2.035-7.908-11.195-7.908-7.203 0-11.979 3.759-12.37 10.727h-2.976c.392-8.848 5.872-13.31 15.346-13.31 7.046 0 14.093 2.191 14.093 10.491v23.252zm-2.975-15.423c-2.349 2.662-8.769 2.349-14.563 3.132-7.046.782-11.039 3.288-11.039 9.316 0 4.854 3.523 8.769 10.569 8.769 13.545 0 15.032-11.587 15.032-13.701v-7.516zm22.474 19.416h.156l10.961-36.797h3.993l11.039 36.797h.156l11.274-36.797h3.288l-12.918 40.242h-3.68l-11.039-36.484h-.157l-11.117 36.484h-3.758l-12.762-40.242h3.21l11.354 36.797z"/>
  <path fill="#4C566A" d="M499.871 250.686c-.571-4.049-2.939-7.509-6.515-9.496l-22.442-12.463c-3.611-2.01-5.646-6.105-5.061-10.199l.576-4.047a9.683 9.683 0 0 0-2.723-8.172c-3.755-3.755-9.864-3.755-13.618 0l-53.324 53.318-102.746 102.747a9.58 9.58 0 0 0-2.818 6.81 9.573 9.573 0 0 0 2.865 6.854l20.412 19.615c.018.015.037.034.059.05.047.046.097.088.146.128l.104.082c.047.031.088.061.135.091.049.033.1.062.15.093.033.02.066.041.104.059.067.037.139.064.204.1a.174.174 0 0 1 .055.025 2.398 2.398 0 0 0 .234.08.53.53 0 0 1 .067.023c.062.018.122.027.184.047.038.01.075.018.108.023.033.008.064.008.098.014.158.025.32.041.479.041h.033c.123-.004.244-.012.363-.029l.109-.012c.125-.024.251-.049.377-.088h.008a2.872 2.872 0 0 0 .455-.181 4.403 4.403 0 0 0 .363-.203 4.01 4.01 0 0 0 .313-.24c.029-.025.055-.057.084-.08.038-.039.08-.07.117-.109.033-.035.059-.071.092-.104a.644.644 0 0 1 .08-.093 3.72 3.72 0 0 0 .229-.325c.012-.018.021-.039.03-.055.067-.112.124-.23.175-.352.008-.008.013-.02.021-.033l3.872-9.398 6.582 1.029a3.075 3.075 0 0 0 3.477-2.378l1.354-6.194 6.113.956a3.065 3.065 0 0 0 3.479-2.38l1.354-6.193 6.109.96a3.079 3.079 0 0 0 3.483-2.378l1.349-6.197 6.105.964a3.07 3.07 0 0 0 3.482-2.38l1.35-6.191 6.109.96a3.075 3.075 0 0 0 3.479-2.382l1.344-6.182 6.105.961a3.077 3.077 0 0 0 3.479-2.383l1.345-6.184 6.101.961a3.075 3.075 0 0 0 3.483-2.385l1.336-6.171 6.097.96a3.074 3.074 0 0 0 3.483-2.379l1.344-6.186 6.1.96a3.073 3.073 0 0 0 3.484-2.384l1.337-6.168 6.08.969a3.08 3.08 0 0 0 3.487-2.386l1.344-6.185 6.102.966a3.079 3.079 0 0 0 3.482-2.386l1.345-6.178 6.106.953a3.071 3.071 0 0 0 3.482-2.383l1.34-6.181 6.089.96h.005l.01.004c.145.021.285.029.428.033h.113c.058-.004.113-.004.172-.008.041-.005.084-.006.125-.012l.18-.026a.764.764 0 0 1 .109-.02c.061-.019.125-.03.182-.048l.105-.031c.059-.023.121-.044.179-.064.033-.013.067-.029.104-.041.056-.024.109-.051.164-.079.037-.018.07-.038.104-.053.055-.032.105-.06.154-.095.033-.02.066-.044.1-.066.051-.032.102-.068.146-.105.029-.023.063-.048.092-.072.052-.045.098-.084.143-.131.018-.018.033-.029.051-.045l32.51-32.512a12.806 12.806 0 0 0 3.65-10.915zm-51.654 45.369l-6.104-.961a3.074 3.074 0 0 0-3.483 2.385l-1.341 6.18-6.105-.96a3.08 3.08 0 0 0-3.482 2.386l-1.34 6.178-6.09-.967a3.066 3.066 0 0 0-3.481 2.385l-1.338 6.173-6.097-.962a3.069 3.069 0 0 0-3.481 2.381l-1.345 6.184-6.103-.963a3.08 3.08 0 0 0-3.483 2.387l-1.334 6.174-6.098-.964a3.076 3.076 0 0 0-3.484 2.384l-1.344 6.184-6.109-.959a3.073 3.073 0 0 0-3.479 2.383l-1.341 6.181-6.106-.962a3.071 3.071 0 0 0-3.48 2.383l-1.351 6.192-6.108-.966a3.077 3.077 0 0 0-3.479 2.387l-1.349 6.188-6.113-.962a3.074 3.074 0 0 0-3.479 2.386l-1.352 6.192-6.114-.963a3.081 3.081 0 0 0-3.479 2.382l-1.35 6.198-6.121-.96a3.084 3.084 0 0 0-3.316 1.866l-3.074 7.471-17.133-16.467a3.453 3.453 0 0 1-1.003-2.443c0-.93.364-1.803 1.02-2.465L398.941 266.15l7.357 7.357a29.438 29.438 0 0 0 11.454 7.078l31.542 10.514-1.077 4.956zm43.65-38.799l-31.162 31.164-41.01-13.666a23.32 23.32 0 0 1-9.049-5.592l-7.359-7.359 51.148-51.146a3.445 3.445 0 0 1 2.461-1.019c.927 0 1.803.358 2.463 1.019a3.5 3.5 0 0 1 .986 2.956l-.581 4.046c-.939 6.6 2.338 13.205 8.163 16.443l22.44 12.463a6.713 6.713 0 0 1 3.414 4.977 6.692 6.692 0 0 1-1.914 5.714z"/>
  <path fill="#88C0D0" d="M493.782 251.541a6.713 6.713 0 0 0-3.414-4.977l-22.44-12.463c-5.825-3.238-9.103-9.844-8.163-16.443l.581-4.046a3.507 3.507 0 0 0-.986-2.956 3.46 3.46 0 0 0-2.463-1.019c-.929 0-1.805.358-2.461 1.019l-51.148 51.146 7.359 7.359a23.325 23.325 0 0 0 9.049 5.592l41.01 13.666 31.162-31.164a6.696 6.696 0 0 0 1.914-5.714zm-24.568 9.828l-10.828 10.826-27.099-9.035a23.263 23.263 0 0 1-7.023-3.794l13.506-13.503a.206.206 0 0 1 .237-.037l31.147 15.212c.036.015.098.048.115.151.015.106-.035.155-.055.18z"/>
  <path fill="#4C566A" d="M475.331 260.175a6.343 6.343 0 0 0-3.478-4.658l-31.148-15.218a6.353 6.353 0 0 0-7.278 1.217l-15.794 15.794a3.075 3.075 0 0 0-.004 4.349l.262.257a29.463 29.463 0 0 0 11.451 7.079l28.9 9.635a3.072 3.072 0 0 0 3.147-.744l12.169-12.173a6.35 6.35 0 0 0 1.773-5.538zm-6.117 1.194l-10.828 10.826-27.099-9.035a23.263 23.263 0 0 1-7.023-3.794l13.506-13.503a.206.206 0 0 1 .237-.037l31.147 15.212c.036.015.098.048.115.151.015.106-.035.155-.055.18zm11.333-14.545l-31.152-15.215a3.076 3.076 0 0 0-4.111 1.412 3.075 3.075 0 0 0 1.413 4.111l31.151 15.215a3.072 3.072 0 0 0 4.111-1.416 3.072 3.072 0 0 0-1.412-4.107z"/>
  <path fill="#D8DEE9" d="M417.753 280.586a29.438 29.438 0 0 1-11.454-7.078l-7.357-7.357-100.576 100.568a3.485 3.485 0 0 0-.017 4.908l17.133 16.467 3.074-7.471a3.083 3.083 0 0 1 3.316-1.866l6.121.96 1.35-6.198a3.08 3.08 0 0 1 3.479-2.382l6.114.963 1.352-6.192a3.075 3.075 0 0 1 3.479-2.386l6.113.962 1.349-6.188a3.078 3.078 0 0 1 3.479-2.387l6.108.966 1.351-6.192a3.072 3.072 0 0 1 3.48-2.383l6.106.962 1.341-6.181a3.073 3.073 0 0 1 3.479-2.383l6.109.959 1.344-6.184a3.077 3.077 0 0 1 3.484-2.384l6.098.964 1.334-6.174a3.08 3.08 0 0 1 3.483-2.387l6.103.963 1.345-6.184a3.07 3.07 0 0 1 3.481-2.381l6.097.962 1.338-6.173a3.067 3.067 0 0 1 3.481-2.385l6.09.967 1.34-6.178a3.081 3.081 0 0 1 3.482-2.386l6.105.96 1.341-6.18a3.075 3.075 0 0 1 3.483-2.385l6.104.961 1.078-4.955-31.54-10.512zm-28.231 8.891l-30.138 30.135c-.6.602-1.387.9-2.174.9a3.072 3.072 0 0 1-2.173-5.245l30.138-30.138a3.073 3.073 0 0 1 4.347 0 3.076 3.076 0 0 1 0 4.348zm9.273-9.274l-2.319 2.316a3.054 3.054 0 0 1-2.172.902 3.057 3.057 0 0 1-2.173-.902 3.07 3.07 0 0 1 0-4.345l2.317-2.318a3.075 3.075 0 0 1 4.347 4.347z"/>
</svg>
