<svg xmlns="http://www.w3.org/2000/svg" width="44.045" height="48" viewBox="0 0 44.045 48">
  <path fill="#E5E9F0" d="M44.03 44.467l-5.446-30.888a.98.98 0 0 0-1.136-.795l-13.513 2.383a.981.981 0 0 0-.796 1.136l5.447 30.888a.981.981 0 0 0 1.135.795l13.514-2.383a.98.98 0 0 0 .795-1.136z"/>
  <path fill="#ECEFF4" d="M40.795 43.048l-9.653 1.701-4.764-27.027 9.653-1.701z"/>
  <path fill="#E5E9F0" d="M23.653 23.523H2.091a.98.98 0 0 0-.98.98v21.563c0 .542.439.98.98.98h21.563c.542 0 .98-.438.98-.98V24.504a.98.98 0 0 0-.981-.981z"/>
  <path fill="#ECEFF4" d="M4.051 26.464h17.643v17.643H4.051z"/>
  <path fill="#E5E9F0" d="M23.523 22.543V.98a.979.979 0 0 0-.98-.98H.98A.98.98 0 0 0 0 .98v21.563c0 .541.439.98.98.98h21.563a.98.98 0 0 0 .98-.98z"/>
  <path fill="#ECEFF4" d="M2.94 2.94h17.643v17.643H2.94z"/>
</svg>
