<svg xmlns="http://www.w3.org/2000/svg" width="888" height="200" viewBox="0 0 888 200">
  <path fill="#88C0D0" d="M376.601 163.109c.361 5.699 4.621 9 10.201 9 4.02 0 9.779-1.201 9.779-6.541 0-5.219-5.279-6-10.561-7.079-5.34-1.08-10.619-2.46-10.619-8.76 0-6.12 5.939-7.919 11.16-7.919 6.539 0 11.398 2.819 11.398 9.839h-2.279c-.061-5.579-3.959-7.859-9.119-7.859-4.201 0-8.881 1.56-8.881 5.939 0 4.92 5.281 5.7 10.26 6.78 6.121 1.14 10.92 2.58 10.92 9.059 0 6.66-6.66 8.52-12.059 8.52-7.02 0-12.301-3.779-12.48-10.979h2.28zm27.779-20.58h2.281v6.6h.119c1.56-4.619 6.241-7.318 11.04-7.318 10.859 0 10.98 8.699 10.98 12.479v19.08h-2.281v-19.5c0-3.18-.359-10.079-8.76-10.079-6.898 0-11.099 5.339-11.099 12.899v16.68h-2.281v-30.841zm43.86-.718c9.059 0 14.16 7.379 14.16 16.139s-5.102 16.139-14.16 16.139c-9.061 0-14.16-7.379-14.16-16.139s5.1-16.139 14.16-16.139zm0 30.298c7.74 0 11.879-6.781 11.879-14.16s-4.139-14.159-11.879-14.159-11.879 6.78-11.879 14.159 4.139 14.16 11.879 14.16zm27.18-1.38h.119l8.4-28.199H487l8.459 28.199h.121l8.639-28.199h2.52l-9.898 30.84h-2.82l-8.461-27.959h-.119l-8.52 27.959h-2.881l-9.779-30.84h2.461l8.698 28.199z"/>
  <path fill="#2E3440" d="M511.059 163.109c.361 5.699 4.621 9 10.201 9 4.02 0 9.779-1.201 9.779-6.541 0-5.219-5.279-6-10.561-7.079-5.34-1.08-10.619-2.46-10.619-8.76 0-6.12 5.939-7.919 11.16-7.919 6.539 0 11.398 2.819 11.398 9.839h-2.279c-.061-5.579-3.959-7.859-9.119-7.859-4.201 0-8.881 1.56-8.881 5.939 0 4.92 5.281 5.7 10.26 6.78 6.121 1.14 10.92 2.58 10.92 9.059 0 6.66-6.66 8.52-12.059 8.52-7.02 0-12.301-3.779-12.48-10.979h2.28zm50.519 4.559c0 1.801 0 3.721 2.039 3.721.42 0 .961-.061 1.68-.18v1.92c-.658.119-1.26.24-1.859.24-3.6 0-4.139-1.98-4.139-4.5v-1.621h-.121c-1.439 3.66-5.58 6.84-11.459 6.84-5.82 0-10.32-2.219-10.32-8.699 0-7.199 6.24-8.699 11.34-9.119 10.199-.721 10.619-1.381 10.619-6.42 0-1.38-1.559-6.06-8.578-6.06-5.521 0-9.18 2.88-9.48 8.22h-2.279c.299-6.779 4.5-10.199 11.76-10.199 5.398 0 10.799 1.68 10.799 8.039v17.818zm-2.279-11.818c-1.801 2.039-6.721 1.8-11.16 2.4-5.4.6-8.459 2.52-8.459 7.139 0 3.721 2.699 6.721 8.1 6.721 10.379 0 11.52-8.881 11.52-10.5v-5.76zm17.221 14.879h.119l8.4-28.199h3.059l8.461 28.199h.119l8.641-28.199h2.52l-9.9 30.84h-2.82l-8.459-27.959h-.119l-8.521 27.959h-2.879l-9.779-30.84h2.459l8.699 28.199zM440.063 62.076a9.819 9.819 0 0 0-4.992-7.277l-17.197-9.551a7.738 7.738 0 0 1-3.878-7.814l.441-3.102a7.421 7.421 0 0 0-2.087-6.262c-2.877-2.877-7.559-2.877-10.435 0l-40.861 40.857-78.733 78.733a7.338 7.338 0 0 0-2.16 5.219c0 1.972.768 3.824 2.16 5.217l.036.034 15.642 15.031.044.038c.036.035.074.066.113.098.025.021.054.043.08.063.035.024.067.047.103.069.038.025.077.048.115.071a.759.759 0 0 0 .08.045c.051.028.106.05.157.077a.135.135 0 0 1 .042.019 2.107 2.107 0 0 0 .179.062.764.764 0 0 1 .051.018c.048.014.093.022.141.036l.083.019c.025.007.048.007.074.011.122.019.246.031.368.031h.025c.094-.004.187-.009.278-.022.03-.004.055-.007.084-.009.096-.02.192-.038.288-.067h.006a2.307 2.307 0 0 0 .35-.138c.083-.041.16-.087.24-.134a.15.15 0 0 1 .038-.022 2.92 2.92 0 0 0 .24-.186c.023-.019.042-.042.064-.061.029-.029.061-.054.089-.083.026-.026.045-.055.07-.08a.589.589 0 0 1 .061-.07c.063-.08.122-.163.176-.25.009-.014.016-.029.023-.042.051-.085.095-.176.134-.269.006-.007.009-.016.016-.025l2.966-7.202 5.044.789a2.358 2.358 0 0 0 2.665-1.823l1.037-4.746 4.685.732a2.35 2.35 0 0 0 2.666-1.824l1.037-4.745 4.681.735a2.358 2.358 0 0 0 2.669-1.822l1.034-4.748 4.678.738a2.352 2.352 0 0 0 2.668-1.824l1.034-4.743 4.682.735a2.356 2.356 0 0 0 2.666-1.826l1.03-4.736 4.678.736a2.358 2.358 0 0 0 2.666-1.827l1.03-4.737 4.675.736a2.358 2.358 0 0 0 2.67-1.826l1.023-4.73 4.672.736a2.355 2.355 0 0 0 2.669-1.823l1.03-4.74 4.674.736a2.356 2.356 0 0 0 2.67-1.827l1.024-4.726 4.659.742a2.36 2.36 0 0 0 2.672-1.828l1.029-4.739 4.676.739a2.359 2.359 0 0 0 2.669-1.827l1.03-4.735 4.679.732a2.355 2.355 0 0 0 2.669-1.827l1.027-4.736 4.665.735h.004l.007.004c.111.016.22.022.329.025h.086l.132-.006.096-.01.138-.02a.686.686 0 0 1 .084-.016c.047-.014.096-.022.14-.035.029-.01.055-.016.08-.025l.138-.049c.025-.01.051-.022.08-.031.042-.02.083-.039.125-.061l.08-.041c.041-.023.08-.046.118-.072l.076-.051a1.15 1.15 0 0 0 .112-.082c.022-.017.048-.036.07-.055.039-.033.074-.064.109-.1.013-.014.025-.022.038-.035l24.913-24.912a9.811 9.811 0 0 0 2.799-8.366zm-39.582 34.766l-4.678-.736a2.357 2.357 0 0 0-2.669 1.828l-1.027 4.734-4.679-.735a2.36 2.36 0 0 0-2.668 1.827l-1.027 4.735-4.666-.741a2.35 2.35 0 0 0-2.668 1.826l-1.025 4.73-4.672-.736a2.352 2.352 0 0 0-2.668 1.824l-1.03 4.738-4.676-.738a2.36 2.36 0 0 0-2.669 1.829l-1.023 4.731-4.672-.739a2.356 2.356 0 0 0-2.669 1.827l-1.03 4.738-4.681-.735a2.356 2.356 0 0 0-2.666 1.826l-1.027 4.736-4.679-.736a2.354 2.354 0 0 0-2.668 1.825l-1.034 4.745-4.682-.739a2.358 2.358 0 0 0-2.666 1.828l-1.034 4.742-4.685-.737a2.358 2.358 0 0 0-2.666 1.828l-1.036 4.746-4.686-.738a2.359 2.359 0 0 0-2.665 1.825l-1.034 4.749-4.691-.735a2.362 2.362 0 0 0-2.541 1.431l-2.355 5.725-13.129-12.619a2.64 2.64 0 0 1-.768-1.871c0-.713.278-1.383.781-1.889l77.07-77.065 5.638 5.639a22.566 22.566 0 0 0 8.777 5.424l24.17 8.057-.827 3.796zm33.45-29.732l-23.88 23.881-31.425-10.471a17.885 17.885 0 0 1-6.934-4.285l-5.64-5.64 39.194-39.193c.502-.505 1.174-.78 1.885-.78s1.382.275 1.888.78c.589.589.874 1.438.756 2.266l-.445 3.101c-.72 5.057 1.792 10.119 6.256 12.6l17.196 9.551a5.137 5.137 0 0 1 2.615 3.813 5.13 5.13 0 0 1-1.466 4.377z"/>
  <path fill="#88C0D0" d="M435.397 62.73a5.142 5.142 0 0 0-2.615-3.813l-17.196-9.551c-4.464-2.48-6.976-7.543-6.256-12.6l.445-3.101a2.689 2.689 0 0 0-.756-2.266c-.506-.505-1.177-.78-1.888-.78s-1.383.275-1.885.78l-39.194 39.193 5.64 5.64a17.873 17.873 0 0 0 6.934 4.285l31.425 10.472 23.88-23.881a5.126 5.126 0 0 0 1.466-4.378zm-18.826 7.533l-8.298 8.296-20.765-6.924a17.83 17.83 0 0 1-5.382-2.906l10.349-10.348a.16.16 0 0 1 .182-.029l23.868 11.657c.027.011.075.036.088.116.012.08-.026.118-.042.138z"/>
  <path fill="#4C566A" d="M421.259 69.348a4.865 4.865 0 0 0-2.665-3.57l-23.868-11.66a4.872 4.872 0 0 0-5.578.932l-12.103 12.104a2.357 2.357 0 0 0-.003 3.332l.201.197a22.577 22.577 0 0 0 8.774 5.424l22.146 7.383a2.356 2.356 0 0 0 2.412-.57l9.324-9.327a4.87 4.87 0 0 0 1.36-4.245zm-4.688.915l-8.298 8.296-20.765-6.924a17.83 17.83 0 0 1-5.382-2.906l10.349-10.348a.16.16 0 0 1 .182-.029l23.868 11.657c.027.011.075.036.088.116.012.08-.026.118-.042.138zm8.685-11.146l-23.872-11.659a2.356 2.356 0 0 0-2.067 4.233l23.871 11.658a2.354 2.354 0 0 0 2.068-4.232z"/>
  <path fill="#D8DEE9" d="M377.138 84.988a22.566 22.566 0 0 1-8.777-5.424l-5.638-5.639-77.07 77.065a2.667 2.667 0 0 0-.781 1.889c0 .707.272 1.37.768 1.871l13.129 12.619 2.355-5.725a2.362 2.362 0 0 1 2.541-1.431l4.691.735 1.034-4.749a2.358 2.358 0 0 1 2.665-1.825l4.686.738 1.036-4.746a2.357 2.357 0 0 1 2.666-1.828l4.685.737 1.034-4.742a2.357 2.357 0 0 1 2.666-1.828l4.682.739 1.034-4.745a2.353 2.353 0 0 1 2.668-1.825l4.679.736 1.027-4.736a2.355 2.355 0 0 1 2.666-1.826l4.681.735 1.03-4.738a2.357 2.357 0 0 1 2.669-1.827l4.672.739 1.023-4.731a2.36 2.36 0 0 1 2.669-1.829l4.676.738 1.03-4.738a2.351 2.351 0 0 1 2.668-1.824l4.672.736 1.025-4.73a2.35 2.35 0 0 1 2.668-1.826l4.666.741 1.027-4.735a2.36 2.36 0 0 1 2.668-1.827l4.679.735 1.027-4.734a2.356 2.356 0 0 1 2.669-1.828l4.678.736.826-3.797-24.169-8.056zM355.505 91.8l-23.094 23.094c-.46.46-1.063.689-1.666.689a2.354 2.354 0 0 1-1.665-4.019l23.094-23.095a2.357 2.357 0 0 1 3.331 0c.919.92.919 2.412 0 3.331zm7.105-7.105l-1.777 1.775a2.342 2.342 0 0 1-1.664.69 2.354 2.354 0 0 1-1.666-4.02l1.776-1.777a2.355 2.355 0 1 1 3.331 3.332z"/>
</svg>
