<svg xmlns="http://www.w3.org/2000/svg" width="512" height="512" viewBox="0 0 512 512">
  <path fill="#2E3440" d="M506.69 138.91c-1.36-9.7-7.04-17.98-15.601-22.74l-53.74-29.85C428.7 81.51 423.83 71.7 425.23 61.9l1.38-9.69c1.02-7.15-1.42-14.46-6.521-19.57-8.99-8.99-23.62-8.99-32.609 0L259.79 160.32 13.75 406.36C9.4 410.72 7 416.51 7 422.67s2.4 11.95 6.75 16.3l.11.11 48.88 46.97c.04.04.09.08.14.12.11.11.23.21.35.311.08.06.17.13.25.189.11.08.21.15.32.22.12.08.24.15.36.221.08.05.16.1.25.14.16.09.33.16.49.24.05.02.09.04.13.06.01 0 .02 0 .03.01.18.07.35.131.53.181.05.02.11.04.16.06.15.04.29.07.44.11.09.02.18.04.26.06.08.021.15.021.23.03.38.06.77.1 1.15.1h.08c.29-.01.58-.029.87-.069.09-.011.17-.021.26-.03.3-.06.6-.12.9-.21h.02c.31-.09.61-.21.91-.35.06-.03.12-.061.18-.08.26-.13.5-.271.75-.42.04-.03.08-.051.12-.07.26-.18.5-.37.75-.58.07-.06.13-.13.2-.19.09-.09.19-.17.28-.26.08-.08.14-.17.22-.25.06-.08.12-.149.19-.22.2-.25.38-.51.55-.78.03-.04.05-.09.07-.13.16-.27.3-.55.42-.84.02-.021.03-.05.05-.08l9.27-22.51 15.76 2.47c3.85.6 7.5-1.9 8.33-5.7l3.24-14.83 14.64 2.29c3.85.61 7.5-1.89 8.33-5.7l3.24-14.829 14.63 2.3c3.85.6 7.51-1.9 8.34-5.7l3.23-14.83 14.62 2.3c3.86.61 7.51-1.89 8.34-5.7l3.23-14.819 14.63 2.3c3.85.6 7.5-1.9 8.33-5.71l3.22-14.8 14.62 2.3c3.85.6 7.5-1.9 8.33-5.71l3.22-14.8 14.61 2.3c3.85.609 7.51-1.9 8.34-5.71l3.199-14.78 14.601 2.3c3.85.61 7.51-1.89 8.34-5.7l3.22-14.81 14.61 2.3a7.359 7.359 0 0 0 8.34-5.71l3.2-14.77 14.56 2.319a7.37 7.37 0 0 0 8.351-5.71l3.22-14.81 14.61 2.31a7.372 7.372 0 0 0 8.34-5.71l3.22-14.8 14.62 2.29a7.36 7.36 0 0 0 8.34-5.71l3.21-14.8 14.58 2.3h.01l.021.01c.35.05.689.07 1.029.08h.271c.14-.01.27-.01.41-.02l.3-.03.43-.06c.09-.02.181-.04.261-.05.149-.04.3-.07.439-.11.09-.03.17-.05.25-.08.14-.05.29-.1.43-.15.08-.03.16-.07.25-.1.131-.06.261-.12.391-.19.09-.04.17-.09.25-.13.13-.07.25-.14.37-.22.08-.05.16-.11.239-.16.12-.08.24-.17.351-.26a4.998 4.998 0 0 0 .56-.48c.04-.04.08-.07.12-.11l77.851-77.85c6.916-6.924 10.106-16.454 8.746-26.144zM383 247.55l-14.62-2.3c-3.86-.6-7.51 1.9-8.34 5.71l-3.21 14.8-14.62-2.3c-3.85-.6-7.51 1.9-8.34 5.71l-3.21 14.8-14.58-2.319c-3.86-.61-7.521 1.899-8.34 5.71l-3.2 14.779-14.6-2.3a7.355 7.355 0 0 0-8.341 5.7l-3.22 14.81-14.61-2.31a7.37 7.37 0 0 0-8.339 5.72l-3.2 14.78-14.6-2.31c-3.85-.61-7.51 1.899-8.34 5.71l-3.22 14.81-14.63-2.3a7.361 7.361 0 0 0-8.33 5.71l-3.21 14.8-14.62-2.3a7.358 7.358 0 0 0-8.34 5.7l-3.23 14.83-14.63-2.311c-3.85-.6-7.5 1.9-8.33 5.71l-3.23 14.82-14.64-2.3a7.361 7.361 0 0 0-8.33 5.71l-3.24 14.83-14.64-2.301c-3.85-.6-7.5 1.9-8.33 5.7l-3.23 14.84-14.66-2.3a7.384 7.384 0 0 0-7.94 4.47l-7.36 17.891-41.03-39.429a8.26 8.26 0 0 1-2.4-5.85c0-2.229.87-4.32 2.44-5.9L265 175.94l17.62 17.62a70.513 70.513 0 0 0 27.43 16.95l75.53 25.18-2.58 11.86zm104.53-92.91l-74.63 74.63-98.2-32.73a55.781 55.781 0 0 1-21.67-13.39l-17.62-17.62L397.89 43.05a8.251 8.251 0 0 1 5.891-2.44c2.229 0 4.319.86 5.899 2.44a8.393 8.393 0 0 1 2.36 7.08l-1.39 9.69c-2.25 15.8 5.6 31.62 19.55 39.37l53.74 29.85c4.479 2.49 7.46 6.83 8.17 11.91s-.96 10.07-4.58 13.69z"/>
  <path fill="#88C0D0" d="M492.11 140.95c-.71-5.08-3.69-9.42-8.17-11.91L430.2 99.19c-13.95-7.75-21.8-23.57-19.55-39.37l1.39-9.69a8.396 8.396 0 0 0-2.36-7.08 8.273 8.273 0 0 0-5.899-2.44c-2.221 0-4.32.86-5.891 2.44L275.41 165.53l17.62 17.62a55.781 55.781 0 0 0 21.67 13.39l98.2 32.73 74.63-74.63c3.62-3.62 5.29-8.61 4.58-13.69zm-58.83 23.54l-25.931 25.93-64.89-21.64a55.74 55.74 0 0 1-16.82-9.08l32.341-32.34a.5.5 0 0 1 .569-.09l74.59 36.43c.08.03.23.11.271.36s-.08.37-.13.43z"/>
  <path fill="#4C566A" d="M447.93 161.63c-.81-4.83-3.92-9.01-8.33-11.16l-74.59-36.43a15.212 15.212 0 0 0-17.43 2.91l-37.82 37.82a7.36 7.36 0 0 0-.01 10.41l.63.62a70.549 70.549 0 0 0 27.42 16.95l69.21 23.07c.76.25 1.54.38 2.32.38 1.93 0 3.81-.76 5.21-2.16l29.14-29.15c3.47-3.46 5.06-8.42 4.25-13.26zm-14.65 2.86l-25.931 25.93-64.89-21.64a55.74 55.74 0 0 1-16.82-9.08l32.341-32.34a.5.5 0 0 1 .569-.09l74.59 36.43c.08.03.23.11.271.36s-.08.37-.13.43zm27.136-34.831l-74.597-36.432a7.363 7.363 0 0 0-9.844 3.384 7.36 7.36 0 0 0 3.384 9.844l74.597 36.432a7.362 7.362 0 0 0 6.46-13.228z"/>
  <path fill="#D8DEE9" d="M310.05 210.51a70.513 70.513 0 0 1-27.43-16.95L265 175.94 24.16 416.77a8.317 8.317 0 0 0-2.44 5.9c0 2.21.85 4.28 2.4 5.85l41.03 39.431 7.36-17.891a7.385 7.385 0 0 1 7.94-4.47l14.66 2.3 3.23-14.84c.83-3.8 4.48-6.3 8.33-5.7l14.64 2.301 3.24-14.83a7.361 7.361 0 0 1 8.33-5.71l14.64 2.3 3.23-14.82a7.363 7.363 0 0 1 8.33-5.71l14.63 2.311 3.23-14.83a7.356 7.356 0 0 1 8.34-5.7l14.62 2.3 3.21-14.8a7.361 7.361 0 0 1 8.33-5.71l14.63 2.3 3.22-14.81c.83-3.811 4.49-6.32 8.34-5.71l14.6 2.31 3.2-14.78a7.373 7.373 0 0 1 8.339-5.72l14.61 2.31 3.22-14.81a7.353 7.353 0 0 1 8.341-5.7l14.6 2.3 3.2-14.779a7.352 7.352 0 0 1 8.34-5.71l14.58 2.319 3.21-14.8a7.373 7.373 0 0 1 8.34-5.71l14.62 2.3 3.21-14.8a7.367 7.367 0 0 1 8.34-5.71l14.62 2.3 2.58-11.86-75.53-25.182zm-67.604 21.285l-72.167 72.167a7.334 7.334 0 0 1-5.205 2.156 7.331 7.331 0 0 1-5.203-2.156 7.355 7.355 0 0 1 0-10.407l72.167-72.169a7.36 7.36 0 1 1 10.408 10.409zm22.204-22.204l-5.552 5.552a7.33 7.33 0 0 1-5.203 2.156 7.36 7.36 0 0 1-5.205-12.565l5.552-5.552a7.36 7.36 0 0 1 10.408 10.409z"/>
</svg>
